<svg width="621" height="70" viewBox="0 0 621 70" fill="none" xmlns="http://www.w3.org/2000/svg">
<path d="M9.23641 25.4036C7.57315 25.4036 6.04441 25 4.65021 24.1928C3.28046 23.3612 2.17977 22.0771 1.34814 20.3404C0.540966 18.6038 0.137379 16.3902 0.137379 13.6996C0.137379 11.4493 0.406437 9.56588 0.944552 8.04938C1.50713 6.50841 2.24092 5.28542 3.14593 4.38041C4.05094 3.4754 5.04156 2.82722 6.11779 2.43586C7.21848 2.02005 8.30694 1.81214 9.38317 1.81214C11.0954 1.81214 12.5629 2.20349 13.7859 2.98621C15.0334 3.76892 15.9751 4.86961 16.611 6.28827L14.0061 8.23283L13.7126 8.41627L13.5291 8.12276C13.5536 7.95154 13.5291 7.78032 13.4557 7.6091C13.4068 7.41342 13.2845 7.14437 13.0888 6.80193C12.5507 6.16598 11.9881 5.73793 11.4011 5.51779C10.8385 5.27319 10.2393 5.1509 9.60331 5.1509C8.67384 5.1509 7.79329 5.46887 6.96166 6.10483C6.15448 6.74078 5.49407 7.68248 4.98041 8.92993C4.49122 10.1529 4.24662 11.6817 4.24662 13.5161C4.24662 16.1578 4.72359 18.2369 5.67752 19.7534C6.65591 21.2454 7.8789 21.9914 9.34648 21.9914C10.2515 21.9914 11.0342 21.7958 11.6946 21.4044C12.355 21.0131 12.9543 20.3649 13.4924 19.4599L16.3542 21.5879C15.4981 22.9821 14.483 23.9727 13.309 24.5597C12.1594 25.1223 10.8018 25.4036 9.23641 25.4036ZM20.6102 7.93931H24.9029L24.8662 10.691C25.3309 9.71264 26.0158 8.94216 26.9208 8.37959C27.8258 7.81701 28.7798 7.53572 29.7826 7.53572C31.6905 7.53572 33.2681 8.18391 34.5156 9.48028L32.7545 12.9658L32.6444 13.2593L32.3142 13.1126C32.2408 12.9169 32.1674 12.7212 32.0941 12.5255C32.0207 12.3054 31.8372 12.0608 31.5437 11.7917C31.2013 11.5227 30.8344 11.3148 30.443 11.168C30.0761 11.0212 29.6726 10.9479 29.2323 10.9479C28.0582 10.9479 27.0309 11.3514 26.1503 12.1586C25.2698 12.9658 24.8295 14.2622 24.8295 16.0477V25H20.6102V7.93931ZM45.6326 25.4036C43.9937 25.4036 42.5262 25.0611 41.2298 24.3763C39.9579 23.6914 38.955 22.6886 38.2212 21.3677C37.4874 20.0469 37.1206 18.457 37.1206 16.5981C37.1206 14.6902 37.4752 13.0636 38.1846 11.7183C38.9183 10.3731 39.8845 9.34575 41.083 8.63641C42.306 7.90262 43.6635 7.53572 45.1556 7.53572C46.4764 7.53572 47.6872 7.84147 48.7879 8.45296C49.913 9.06446 50.8058 9.99393 51.4662 11.2414C52.1511 12.4644 52.4935 13.9931 52.4935 15.8276C52.4935 16.0722 52.4813 16.3657 52.4568 16.7081C52.4568 17.0506 52.4446 17.3441 52.4201 17.5887H41.1197C41.1686 18.6649 41.4255 19.5455 41.8902 20.2303C42.3549 20.8908 42.9297 21.38 43.6146 21.6979C44.2995 22.0159 45.0333 22.1749 45.816 22.1749C46.5743 22.1749 47.2958 22.0526 47.9807 21.808C48.6656 21.5634 49.3015 21.1476 49.8886 20.5606L52.0166 22.6152C51.1849 23.5936 50.231 24.3029 49.1548 24.7432C48.0785 25.1834 46.9045 25.4036 45.6326 25.4036ZM41.1931 14.4701H48.4577C48.4577 13.2715 48.1519 12.3543 47.5404 11.7183C46.9289 11.0824 46.0728 10.7644 44.9721 10.7644C44.0182 10.7644 43.1866 11.0702 42.4772 11.6817C41.7679 12.2687 41.3399 13.1982 41.1931 14.4701ZM61.299 25.4403C59.4156 25.4403 57.948 25 56.8963 24.1194C55.869 23.2389 55.3553 22.0771 55.3553 20.6339C55.3553 18.8239 56.1625 17.3319 57.7768 16.1578C59.4156 14.9593 61.7882 14.36 64.8946 14.36C65.0658 14.36 65.286 14.36 65.555 14.36C65.8486 14.36 66.1543 14.3722 66.4723 14.3967C66.3011 12.978 65.8975 12.0241 65.2615 11.5349C64.6256 11.0212 63.7695 10.7644 62.6932 10.7644C61.9105 10.7644 61.1767 10.8989 60.4919 11.168C59.807 11.4126 59.1221 11.8773 58.4372 12.5622L56.1625 10.0673C57.1409 9.1623 58.2049 8.51411 59.3545 8.12276C60.5041 7.7314 61.6782 7.53572 62.8767 7.53572C64.2954 7.53572 65.5917 7.76809 66.7658 8.23283C67.9399 8.6731 68.8693 9.45582 69.5542 10.581C70.2391 11.6817 70.5815 13.2104 70.5815 15.1672V25H66.2888V23.1655C65.6529 24.0216 64.9191 24.6209 64.0875 24.9633C63.2558 25.2813 62.3263 25.4403 61.299 25.4403ZM59.5012 20.1203C59.5012 20.903 59.7458 21.4533 60.235 21.7713C60.7487 22.0648 61.3724 22.2116 62.1062 22.2116C63.427 22.2116 64.4543 21.8202 65.1881 21.0375C65.9219 20.2303 66.3622 18.9707 66.509 17.2585C66.191 17.2585 65.8852 17.2585 65.5917 17.2585C65.2982 17.234 65.0414 17.2218 64.8212 17.2218C62.8645 17.2218 61.4825 17.4909 60.6753 18.029C59.8926 18.5671 59.5012 19.2642 59.5012 20.1203ZM83.3495 25.3669C82.0287 25.3669 80.9402 25.0856 80.0841 24.523C79.228 23.936 78.6043 22.9698 78.213 21.6246C77.8216 20.2793 77.6749 18.457 77.7727 16.1578L77.9561 11.2047H74.4706L74.544 7.93931H78.1029L78.2497 3.90345L82.5423 3.3531L82.8726 3.31641L82.9092 3.64662C82.7869 3.81784 82.6769 4.00129 82.579 4.19696C82.5057 4.36818 82.4567 4.64947 82.4323 5.04083L82.1754 7.93931H87.6789L87.6422 11.2047H82.1388L81.9186 16.0844C81.8452 17.6743 81.8942 18.8973 82.0654 19.7534C82.2611 20.6095 82.5423 21.2087 82.9092 21.5512C83.3006 21.8691 83.7653 22.0281 84.3034 22.0281C85.0862 22.0281 85.7833 21.8691 86.3948 21.5512C87.0307 21.2332 87.6177 20.8663 88.1559 20.4505L89.0364 23.459C88.1803 24.0705 87.2875 24.5475 86.3581 24.8899C85.4286 25.2079 84.4257 25.3669 83.3495 25.3669ZM100.667 25.4036C99.0282 25.4036 97.5606 25.0611 96.2643 24.3763C94.9924 23.6914 93.9895 22.6886 93.2557 21.3677C92.5219 20.0469 92.155 18.457 92.155 16.5981C92.155 14.6902 92.5097 13.0636 93.219 11.7183C93.9528 10.3731 94.919 9.34575 96.1175 8.63641C97.3405 7.90262 98.698 7.53572 100.19 7.53572C101.511 7.53572 102.722 7.84147 103.822 8.45296C104.947 9.06446 105.84 9.99393 106.501 11.2414C107.186 12.4644 107.528 13.9931 107.528 15.8276C107.528 16.0722 107.516 16.3657 107.491 16.7081C107.491 17.0506 107.479 17.3441 107.455 17.5887H96.1542C96.2031 18.6649 96.46 19.5455 96.9247 20.2303C97.3894 20.8908 97.9642 21.38 98.6491 21.6979C99.334 22.0159 100.068 22.1749 100.85 22.1749C101.609 22.1749 102.33 22.0526 103.015 21.808C103.7 21.5634 104.336 21.1476 104.923 20.5606L107.051 22.6152C106.219 23.5936 105.265 24.3029 104.189 24.7432C103.113 25.1834 101.939 25.4036 100.667 25.4036ZM96.2276 14.4701H103.492C103.492 13.2715 103.186 12.3543 102.575 11.7183C101.963 11.0824 101.107 10.7644 100.007 10.7644C99.0527 10.7644 98.2211 11.0702 97.5117 11.6817C96.8024 12.2687 96.3743 13.1982 96.2276 14.4701ZM132.037 31.4574C131.205 31.4574 130.471 31.3229 129.835 31.0538C129.199 30.7847 128.576 30.3934 127.964 29.8797L129.395 27.0179L129.542 26.6877L129.872 26.8345C129.945 27.0302 130.031 27.2136 130.129 27.3848C130.227 27.556 130.447 27.7517 130.789 27.9719C131.156 28.1675 131.572 28.2654 132.037 28.2654C132.77 28.2654 133.358 27.9596 133.798 27.3481C134.263 26.7366 134.727 25.7705 135.192 24.4497L128.551 7.93931H132.697L137.063 19.203L138.898 13.9931C139.265 12.9413 139.57 11.9263 139.815 10.9479C140.059 9.96947 140.218 8.96662 140.292 7.93931H144.144C144.046 9.04 143.79 10.2018 143.374 11.4248C142.958 12.6478 142.542 13.8097 142.126 14.9103L137.907 26.5043C137.222 28.3143 136.391 29.5862 135.412 30.32C134.458 31.0783 133.333 31.4574 132.037 31.4574ZM154.894 25.3669C153.378 25.3669 151.996 25 150.748 24.2662C149.525 23.508 148.559 22.4684 147.85 21.1476C147.141 19.8023 146.786 18.2369 146.786 16.4513C146.786 14.7636 147.141 13.2471 147.85 11.9018C148.559 10.5565 149.525 9.4925 150.748 8.70979C151.996 7.92708 153.378 7.53572 154.894 7.53572C156.435 7.53572 157.817 7.92708 159.04 8.70979C160.288 9.4925 161.266 10.5565 161.975 11.9018C162.709 13.2471 163.076 14.7636 163.076 16.4513C163.076 18.2124 162.709 19.7656 161.975 21.1109C161.266 22.4562 160.288 23.508 159.04 24.2662C157.817 25 156.435 25.3669 154.894 25.3669ZM154.894 22.0648C156.068 22.0648 157.035 21.5512 157.793 20.5239C158.551 19.4721 158.93 18.1146 158.93 16.4513C158.93 14.7391 158.551 13.3816 157.793 12.3788C157.035 11.3759 156.068 10.8745 154.894 10.8745C153.769 10.8745 152.827 11.3759 152.069 12.3788C151.311 13.3816 150.932 14.7391 150.932 16.4513C150.932 18.1146 151.299 19.4721 152.033 20.5239C152.791 21.5512 153.745 22.0648 154.894 22.0648ZM171.882 25.4403C170.145 25.4403 168.714 24.8532 167.589 23.6792C166.464 22.5051 165.901 20.5972 165.901 17.9556V7.93931H170.084V17.9556C170.084 19.4721 170.328 20.5483 170.818 21.1843C171.331 21.7958 171.967 22.1015 172.726 22.1015C173.753 22.1015 174.584 21.7346 175.22 21.0008C175.881 20.267 176.211 19.1541 176.211 17.6621V7.93931H180.357V22.285C180.357 22.8231 180.369 23.3123 180.394 23.7526C180.443 24.1684 180.553 24.5842 180.724 25H176.945C176.749 24.6331 176.639 24.2662 176.615 23.8993C176.59 23.5324 176.578 23.1655 176.578 22.7986C176.064 23.6792 175.379 24.3396 174.523 24.7799C173.692 25.2201 172.811 25.4403 171.882 25.4403ZM185.714 7.93931H190.006L189.97 10.691C190.434 9.71264 191.119 8.94216 192.024 8.37959C192.929 7.81701 193.883 7.53572 194.886 7.53572C196.794 7.53572 198.372 8.18391 199.619 9.48028L197.858 12.9658L197.748 13.2593L197.418 13.1126C197.344 12.9169 197.271 12.7212 197.198 12.5255C197.124 12.3054 196.941 12.0608 196.647 11.7917C196.305 11.5227 195.938 11.3148 195.546 11.168C195.18 11.0212 194.776 10.9479 194.336 10.9479C193.162 10.9479 192.134 11.3514 191.254 12.1586C190.373 12.9658 189.933 14.2622 189.933 16.0477V25H185.714V7.93931ZM226.402 25.4403C224.519 25.4403 223.052 25 222 24.1194C220.972 23.2389 220.459 22.0771 220.459 20.6339C220.459 18.8239 221.266 17.3319 222.88 16.1578C224.519 14.9593 226.892 14.36 229.998 14.36C230.169 14.36 230.389 14.36 230.658 14.36C230.952 14.36 231.258 14.3722 231.576 14.3967C231.405 12.978 231.001 12.0241 230.365 11.5349C229.729 11.0212 228.873 10.7644 227.797 10.7644C227.014 10.7644 226.28 10.8989 225.595 11.168C224.91 11.4126 224.226 11.8773 223.541 12.5622L221.266 10.0673C222.244 9.1623 223.308 8.51411 224.458 8.12276C225.608 7.7314 226.782 7.53572 227.98 7.53572C229.399 7.53572 230.695 7.76809 231.869 8.23283C233.043 8.6731 233.973 9.45582 234.658 10.581C235.343 11.6817 235.685 13.2104 235.685 15.1672V25H231.392V23.1655C230.756 24.0216 230.023 24.6209 229.191 24.9633C228.359 25.2813 227.43 25.4403 226.402 25.4403ZM224.605 20.1203C224.605 20.903 224.849 21.4533 225.338 21.7713C225.852 22.0648 226.476 22.2116 227.21 22.2116C228.53 22.2116 229.558 21.8202 230.292 21.0375C231.025 20.2303 231.466 18.9707 231.612 17.2585C231.294 17.2585 230.989 17.2585 230.695 17.2585C230.402 17.234 230.145 17.2218 229.925 17.2218C227.968 17.2218 226.586 17.4909 225.779 18.029C224.996 18.5671 224.605 19.2642 224.605 20.1203ZM247.682 25.4403C246.019 25.4403 244.527 25.0611 243.206 24.3029C241.886 23.5446 240.834 22.5051 240.051 21.1843C239.293 19.839 238.914 18.3103 238.914 16.5981C238.914 14.9103 239.293 13.3816 240.051 12.0119C240.834 10.6421 241.886 9.55365 243.206 8.74648C244.527 7.93931 246.031 7.53572 247.719 7.53572C249.285 7.53572 250.654 7.82924 251.828 8.41627C253.002 9.00331 253.932 9.81048 254.617 10.8378L252.305 13.3694L252.085 13.6262L251.792 13.4061C251.792 13.1859 251.767 12.9903 251.718 12.819C251.669 12.6234 251.51 12.3665 251.241 12.0486C250.777 11.6083 250.251 11.3025 249.664 11.1313C249.101 10.9601 248.465 10.8745 247.756 10.8745C246.949 10.8745 246.19 11.0946 245.481 11.5349C244.772 11.9752 244.197 12.6234 243.757 13.4794C243.341 14.3355 243.133 15.3751 243.133 16.5981C243.133 17.6988 243.353 18.6649 243.793 19.4966C244.234 20.3037 244.808 20.9397 245.518 21.4044C246.252 21.8447 247.034 22.0648 247.866 22.0648C248.624 22.0648 249.37 21.9058 250.104 21.5879C250.838 21.2699 251.523 20.7195 252.159 19.9368L254.47 22.5785C253.565 23.5813 252.513 24.3151 251.315 24.7799C250.116 25.2201 248.905 25.4403 247.682 25.4403ZM266.027 25.4403C264.364 25.4403 262.872 25.0611 261.551 24.3029C260.23 23.5446 259.179 22.5051 258.396 21.1843C257.638 19.839 257.258 18.3103 257.258 16.5981C257.258 14.9103 257.638 13.3816 258.396 12.0119C259.179 10.6421 260.23 9.55365 261.551 8.74648C262.872 7.93931 264.376 7.53572 266.064 7.53572C267.629 7.53572 268.999 7.82924 270.173 8.41627C271.347 9.00331 272.277 9.81048 272.962 10.8378L270.65 13.3694L270.43 13.6262L270.137 13.4061C270.137 13.1859 270.112 12.9903 270.063 12.819C270.014 12.6234 269.855 12.3665 269.586 12.0486C269.121 11.6083 268.596 11.3025 268.009 11.1313C267.446 10.9601 266.81 10.8745 266.101 10.8745C265.294 10.8745 264.535 11.0946 263.826 11.5349C263.117 11.9752 262.542 12.6234 262.102 13.4794C261.686 14.3355 261.478 15.3751 261.478 16.5981C261.478 17.6988 261.698 18.6649 262.138 19.4966C262.578 20.3037 263.153 20.9397 263.863 21.4044C264.596 21.8447 265.379 22.0648 266.211 22.0648C266.969 22.0648 267.715 21.9058 268.449 21.5879C269.183 21.2699 269.867 20.7195 270.503 19.9368L272.815 22.5785C271.91 23.5813 270.858 24.3151 269.66 24.7799C268.461 25.2201 267.25 25.4403 266.027 25.4403ZM283.308 25.3669C281.792 25.3669 280.41 25 279.162 24.2662C277.939 23.508 276.973 22.4684 276.264 21.1476C275.554 19.8023 275.2 18.2369 275.2 16.4513C275.2 14.7636 275.554 13.2471 276.264 11.9018C276.973 10.5565 277.939 9.4925 279.162 8.70979C280.41 7.92708 281.792 7.53572 283.308 7.53572C284.849 7.53572 286.231 7.92708 287.454 8.70979C288.702 9.4925 289.68 10.5565 290.389 11.9018C291.123 13.2471 291.49 14.7636 291.49 16.4513C291.49 18.2124 291.123 19.7656 290.389 21.1109C289.68 22.4562 288.702 23.508 287.454 24.2662C286.231 25 284.849 25.3669 283.308 25.3669ZM283.308 22.0648C284.482 22.0648 285.448 21.5512 286.207 20.5239C286.965 19.4721 287.344 18.1146 287.344 16.4513C287.344 14.7391 286.965 13.3816 286.207 12.3788C285.448 11.3759 284.482 10.8745 283.308 10.8745C282.183 10.8745 281.241 11.3759 280.483 12.3788C279.725 13.3816 279.346 14.7391 279.346 16.4513C279.346 18.1146 279.713 19.4721 280.446 20.5239C281.205 21.5512 282.159 22.0648 283.308 22.0648ZM300.295 25.4403C298.559 25.4403 297.128 24.8532 296.003 23.6792C294.878 22.5051 294.315 20.5972 294.315 17.9556V7.93931H298.498V17.9556C298.498 19.4721 298.742 20.5483 299.231 21.1843C299.745 21.7958 300.381 22.1015 301.139 22.1015C302.167 22.1015 302.998 21.7346 303.634 21.0008C304.295 20.267 304.625 19.1541 304.625 17.6621V7.93931H308.771V22.285C308.771 22.8231 308.783 23.3123 308.807 23.7526C308.856 24.1684 308.966 24.5842 309.138 25H305.359C305.163 24.6331 305.053 24.2662 305.028 23.8993C305.004 23.5324 304.992 23.1655 304.992 22.7986C304.478 23.6792 303.793 24.3396 302.937 24.7799C302.105 25.2201 301.225 25.4403 300.295 25.4403ZM312.88 25V7.93931H317.026V10.2874C317.637 9.45581 318.347 8.7954 319.154 8.30621C319.961 7.79255 320.891 7.53572 321.942 7.53572C322.921 7.53572 323.826 7.78032 324.657 8.26952C325.513 8.73425 326.198 9.49251 326.712 10.5443C327.226 11.596 327.482 12.978 327.482 14.6902V25H323.337V14.7636C323.337 13.3694 323.116 12.3543 322.676 11.7183C322.236 11.0579 321.624 10.7277 320.842 10.7277C320.23 10.7277 319.631 10.8989 319.044 11.2414C318.457 11.5594 317.968 12.0241 317.576 12.6356C317.209 13.2471 317.026 13.9809 317.026 14.837V25H312.88ZM340.177 25.3669C338.856 25.3669 337.768 25.0856 336.912 24.523C336.056 23.936 335.432 22.9698 335.041 21.6246C334.649 20.2793 334.502 18.457 334.6 16.1578L334.784 11.2047H331.298L331.372 7.93931H334.93L335.077 3.90345L339.37 3.3531L339.7 3.31641L339.737 3.64662C339.615 3.81784 339.504 4.00129 339.407 4.19696C339.333 4.36818 339.284 4.64947 339.26 5.04083L339.003 7.93931H344.506L344.47 11.2047H338.966L338.746 16.0844C338.673 17.6743 338.722 18.8973 338.893 19.7534C339.089 20.6095 339.37 21.2087 339.737 21.5512C340.128 21.8691 340.593 22.0281 341.131 22.0281C341.914 22.0281 342.611 21.8691 343.222 21.5512C343.858 21.2332 344.445 20.8663 344.983 20.4505L345.864 23.459C345.008 24.0705 344.115 24.5475 343.186 24.8899C342.256 25.2079 341.253 25.3669 340.177 25.3669ZM376.867 25.3669C375.546 25.3669 374.457 25.0856 373.601 24.523C372.745 23.936 372.122 22.9698 371.73 21.6246C371.339 20.2793 371.192 18.457 371.29 16.1578L371.473 11.2047H367.988L368.061 7.93931H371.62L371.767 3.90345L376.06 3.3531L376.39 3.31641L376.426 3.64662C376.304 3.81784 376.194 4.00129 376.096 4.19696C376.023 4.36818 375.974 4.64947 375.95 5.04083L375.693 7.93931H381.196L381.159 11.2047H375.656L375.436 16.0844C375.362 17.6743 375.411 18.8973 375.583 19.7534C375.778 20.6095 376.06 21.2087 376.426 21.5512C376.818 21.8691 377.283 22.0281 377.821 22.0281C378.603 22.0281 379.301 21.8691 379.912 21.5512C380.548 21.2332 381.135 20.8663 381.673 20.4505L382.554 23.459C381.698 24.0705 380.805 24.5475 379.875 24.8899C378.946 25.2079 377.943 25.3669 376.867 25.3669ZM393.377 25.3669C391.861 25.3669 390.479 25 389.231 24.2662C388.008 23.508 387.042 22.4684 386.333 21.1476C385.623 19.8023 385.269 18.2369 385.269 16.4513C385.269 14.7636 385.623 13.2471 386.333 11.9018C387.042 10.5565 388.008 9.4925 389.231 8.70979C390.479 7.92708 391.861 7.53572 393.377 7.53572C394.918 7.53572 396.3 7.92708 397.523 8.70979C398.77 9.4925 399.749 10.5565 400.458 11.9018C401.192 13.2471 401.559 14.7636 401.559 16.4513C401.559 18.2124 401.192 19.7656 400.458 21.1109C399.749 22.4562 398.77 23.508 397.523 24.2662C396.3 25 394.918 25.3669 393.377 25.3669ZM393.377 22.0648C394.551 22.0648 395.517 21.5512 396.276 20.5239C397.034 19.4721 397.413 18.1146 397.413 16.4513C397.413 14.7391 397.034 13.3816 396.276 12.3788C395.517 11.3759 394.551 10.8745 393.377 10.8745C392.252 10.8745 391.31 11.3759 390.552 12.3788C389.794 13.3816 389.415 14.7391 389.415 16.4513C389.415 18.1146 389.782 19.4721 390.515 20.5239C391.274 21.5512 392.228 22.0648 393.377 22.0648ZM410.878 25.4036C409.606 25.4036 408.432 25.0734 407.356 24.413C406.304 23.7526 405.448 22.7497 404.788 21.4044C404.127 20.0591 403.797 18.3836 403.797 16.3779C403.797 14.3967 404.115 12.7579 404.751 11.4615C405.387 10.1407 406.243 9.15007 407.319 8.48965C408.395 7.82924 409.594 7.49903 410.915 7.49903C411.771 7.49903 412.566 7.65802 413.3 7.976C414.033 8.29398 414.608 8.80763 415.024 9.51696V0.381241H419.463V0.711446C419.317 0.858206 419.219 1.02942 419.17 1.2251C419.145 1.39632 419.133 1.67761 419.133 2.06897L419.097 22.7252C419.097 23.1166 419.121 23.4957 419.17 23.8626C419.219 24.2295 419.329 24.6086 419.5 25H415.428C415.232 24.6086 415.122 24.3029 415.097 24.0828C415.073 23.8382 415.061 23.5202 415.061 23.1288C414.596 23.9115 413.997 24.4863 413.263 24.8532C412.529 25.2201 411.734 25.4036 410.878 25.4036ZM411.575 22.0648C413.825 22.0648 414.951 20.1814 414.951 16.4146C414.951 12.6234 413.789 10.7277 411.465 10.7277C410.291 10.7277 409.398 11.2291 408.787 12.232C408.175 13.2349 407.87 14.5924 407.87 16.3046C407.87 18.1146 408.224 19.5332 408.934 20.5606C409.667 21.5634 410.548 22.0648 411.575 22.0648ZM428.196 25.4403C426.312 25.4403 424.845 25 423.793 24.1194C422.766 23.2389 422.252 22.0771 422.252 20.6339C422.252 18.8239 423.059 17.3319 424.673 16.1578C426.312 14.9593 428.685 14.36 431.791 14.36C431.962 14.36 432.183 14.36 432.452 14.36C432.745 14.36 433.051 14.3722 433.369 14.3967C433.198 12.978 432.794 12.0241 432.158 11.5349C431.522 11.0212 430.666 10.7644 429.59 10.7644C428.807 10.7644 428.073 10.8989 427.388 11.168C426.704 11.4126 426.019 11.8773 425.334 12.5622L423.059 10.0673C424.037 9.1623 425.101 8.51411 426.251 8.12276C427.401 7.7314 428.575 7.53572 429.773 7.53572C431.192 7.53572 432.488 7.76809 433.662 8.23283C434.836 8.6731 435.766 9.45582 436.451 10.581C437.136 11.6817 437.478 13.2104 437.478 15.1672V25H433.185V23.1655C432.549 24.0216 431.816 24.6209 430.984 24.9633C430.152 25.2813 429.223 25.4403 428.196 25.4403ZM426.398 20.1203C426.398 20.903 426.642 21.4533 427.132 21.7713C427.645 22.0648 428.269 22.2116 429.003 22.2116C430.324 22.2116 431.351 21.8202 432.085 21.0375C432.818 20.2303 433.259 18.9707 433.406 17.2585C433.088 17.2585 432.782 17.2585 432.488 17.2585C432.195 17.234 431.938 17.2218 431.718 17.2218C429.761 17.2218 428.379 17.4909 427.572 18.029C426.789 18.5671 426.398 19.2642 426.398 20.1203ZM443.899 31.4574C443.067 31.4574 442.333 31.3229 441.697 31.0538C441.061 30.7847 440.438 30.3934 439.826 29.8797L441.257 27.0179L441.404 26.6877L441.734 26.8345C441.807 27.0302 441.893 27.2136 441.991 27.3848C442.089 27.556 442.309 27.7517 442.651 27.9719C443.018 28.1675 443.434 28.2654 443.899 28.2654C444.633 28.2654 445.22 27.9596 445.66 27.3481C446.125 26.7366 446.589 25.7705 447.054 24.4497L440.413 7.93931H444.559L448.925 19.203L450.76 13.9931C451.127 12.9413 451.432 11.9263 451.677 10.9479C451.922 9.96947 452.081 8.96662 452.154 7.93931H456.006C455.909 9.04 455.652 10.2018 455.236 11.4248C454.82 12.6478 454.404 13.8097 453.988 14.9103L449.769 26.5043C449.084 28.3143 448.253 29.5862 447.274 30.32C446.32 31.0783 445.195 31.4574 443.899 31.4574ZM486.936 25.3669C485.615 25.3669 484.526 25.0856 483.67 24.523C482.814 23.936 482.191 22.9698 481.799 21.6246C481.408 20.2793 481.261 18.457 481.359 16.1578L481.542 11.2047H478.057L478.13 7.93931H481.689L481.836 3.90345L486.129 3.3531L486.459 3.31641L486.495 3.64662C486.373 3.81784 486.263 4.00129 486.165 4.19696C486.092 4.36818 486.043 4.64947 486.018 5.04083L485.762 7.93931H491.265L491.228 11.2047H485.725L485.505 16.0844C485.431 17.6743 485.48 18.8973 485.652 19.7534C485.847 20.6095 486.129 21.2087 486.495 21.5512C486.887 21.8691 487.352 22.0281 487.89 22.0281C488.672 22.0281 489.369 21.8691 489.981 21.5512C490.617 21.2332 491.204 20.8663 491.742 20.4505L492.623 23.459C491.767 24.0705 490.874 24.5475 489.944 24.8899C489.015 25.2079 488.012 25.3669 486.936 25.3669ZM503.446 25.3669C501.93 25.3669 500.548 25 499.3 24.2662C498.077 23.508 497.111 22.4684 496.402 21.1476C495.692 19.8023 495.338 18.2369 495.338 16.4513C495.338 14.7636 495.692 13.2471 496.402 11.9018C497.111 10.5565 498.077 9.4925 499.3 8.70979C500.548 7.92708 501.93 7.53572 503.446 7.53572C504.987 7.53572 506.369 7.92708 507.592 8.70979C508.839 9.4925 509.818 10.5565 510.527 11.9018C511.261 13.2471 511.628 14.7636 511.628 16.4513C511.628 18.2124 511.261 19.7656 510.527 21.1109C509.818 22.4562 508.839 23.508 507.592 24.2662C506.369 25 504.987 25.3669 503.446 25.3669ZM503.446 22.0648C504.62 22.0648 505.586 21.5512 506.345 20.5239C507.103 19.4721 507.482 18.1146 507.482 16.4513C507.482 14.7391 507.103 13.3816 506.345 12.3788C505.586 11.3759 504.62 10.8745 503.446 10.8745C502.321 10.8745 501.379 11.3759 500.621 12.3788C499.863 13.3816 499.484 14.7391 499.484 16.4513C499.484 18.1146 499.85 19.4721 500.584 20.5239C501.343 21.5512 502.296 22.0648 503.446 22.0648ZM539.439 19.2397C538.583 19.2397 537.763 19.1052 536.98 18.8361C536.76 19.0318 536.577 19.2153 536.43 19.3865C536.283 19.5332 536.21 19.7411 536.21 20.0102C536.21 20.4505 536.65 20.7807 537.531 21.0008C538.411 21.221 539.916 21.331 542.044 21.331C543.511 21.331 544.661 21.5389 545.492 21.9548C546.324 22.3706 546.923 22.9331 547.29 23.6425C547.657 24.3274 547.841 25.0734 547.841 25.8806C547.841 26.8345 547.547 27.7395 546.96 28.5956C546.397 29.4761 545.517 30.1855 544.318 30.7236C543.144 31.2862 541.628 31.5674 539.769 31.5674C537.347 31.5674 535.452 31.1516 534.082 30.32C532.712 29.5128 532.027 28.4244 532.027 27.0546C532.027 26.3208 532.26 25.636 532.724 25C533.214 24.3885 533.813 23.8993 534.522 23.5324C534.057 23.2389 533.691 22.8965 533.422 22.5051C533.177 22.0893 533.055 21.6123 533.055 21.0742C533.055 20.3649 533.25 19.7411 533.642 19.203C534.033 18.6649 534.51 18.1635 535.073 17.6988C534.461 17.1851 533.972 16.5614 533.605 15.8276C533.263 15.0693 533.091 14.2499 533.091 13.3694C533.091 12.2687 533.36 11.2781 533.898 10.3975C534.461 9.4925 535.219 8.77094 536.173 8.23283C537.127 7.69471 538.216 7.42565 539.439 7.42565C540.221 7.42565 540.967 7.54795 541.677 7.79255C542.386 8.03715 543.01 8.37959 543.548 8.81986C544.208 8.35513 544.942 8.00046 545.749 7.75586C546.556 7.51126 547.425 7.42565 548.354 7.49903L548.758 10.3608C548.122 10.2385 547.486 10.2141 546.85 10.2874C546.238 10.3608 545.676 10.532 545.162 10.8011C545.554 11.6083 545.749 12.4644 545.749 13.3694C545.749 14.4945 545.468 15.4974 544.905 16.3779C544.367 17.2585 543.621 17.9556 542.667 18.4692C541.713 18.9829 540.637 19.2397 539.439 19.2397ZM539.402 16.2312C540.234 16.2312 540.918 15.9621 541.457 15.424C541.995 14.8859 542.264 14.201 542.264 13.3694C542.264 12.5622 541.982 11.9018 541.42 11.3881C540.882 10.85 540.209 10.581 539.402 10.581C538.668 10.581 538.008 10.85 537.421 11.3881C536.858 11.9263 536.577 12.5867 536.577 13.3694C536.577 14.1521 536.846 14.8247 537.384 15.3873C537.947 15.9499 538.619 16.2312 539.402 16.2312ZM535.219 26.4309C535.219 27.0913 535.672 27.5683 536.577 27.8618C537.506 28.1798 538.68 28.3388 540.099 28.3388C541.493 28.3388 542.557 28.1553 543.291 27.7884C544.049 27.4215 544.428 26.9323 544.428 26.3208C544.428 25.7583 544.184 25.3547 543.695 25.1101C543.23 24.8899 542.3 24.7799 540.906 24.7799C540.148 24.7799 539.402 24.7432 538.668 24.6698C537.934 24.5964 537.249 24.4863 536.614 24.3396C536.222 24.6331 535.892 24.9389 535.623 25.2568C535.354 25.5748 535.219 25.9662 535.219 26.4309ZM559.288 25.4036C557.649 25.4036 556.181 25.0611 554.885 24.3763C553.613 23.6914 552.61 22.6886 551.876 21.3677C551.143 20.0469 550.776 18.457 550.776 16.5981C550.776 14.6902 551.13 13.0636 551.84 11.7183C552.574 10.3731 553.54 9.34575 554.738 8.63641C555.961 7.90262 557.319 7.53572 558.811 7.53572C560.132 7.53572 561.342 7.84147 562.443 8.45296C563.568 9.06446 564.461 9.99393 565.121 11.2414C565.806 12.4644 566.149 13.9931 566.149 15.8276C566.149 16.0722 566.136 16.3657 566.112 16.7081C566.112 17.0506 566.1 17.3441 566.075 17.5887H554.775C554.824 18.6649 555.081 19.5455 555.545 20.2303C556.01 20.8908 556.585 21.38 557.27 21.6979C557.955 22.0159 558.688 22.1749 559.471 22.1749C560.229 22.1749 560.951 22.0526 561.636 21.808C562.321 21.5634 562.957 21.1476 563.544 20.5606L565.672 22.6152C564.84 23.5936 563.886 24.3029 562.81 24.7432C561.734 25.1834 560.56 25.4036 559.288 25.4036ZM554.848 14.4701H562.113C562.113 13.2715 561.807 12.3543 561.196 11.7183C560.584 11.0824 559.728 10.7644 558.627 10.7644C557.673 10.7644 556.842 11.0702 556.132 11.6817C555.423 12.2687 554.995 13.1982 554.848 14.4701ZM578.66 25.3669C577.339 25.3669 576.251 25.0856 575.394 24.523C574.538 23.936 573.915 22.9698 573.523 21.6246C573.132 20.2793 572.985 18.457 573.083 16.1578L573.266 11.2047H569.781L569.854 7.93931H573.413L573.56 3.90345L577.853 3.3531L578.183 3.31641L578.22 3.64662C578.097 3.81784 577.987 4.00129 577.889 4.19696C577.816 4.36818 577.767 4.64947 577.743 5.04083L577.486 7.93931H582.989L582.953 11.2047H577.449L577.229 16.0844C577.156 17.6743 577.204 18.8973 577.376 19.7534C577.571 20.6095 577.853 21.2087 578.22 21.5512C578.611 21.8691 579.076 22.0281 579.614 22.0281C580.396 22.0281 581.094 21.8691 581.705 21.5512C582.341 21.2332 582.928 20.8663 583.466 20.4505L584.347 23.459C583.491 24.0705 582.598 24.5475 581.668 24.8899C580.739 25.2079 579.736 25.3669 578.66 25.3669ZM9.97021 63.3669C8.64938 63.3669 7.56092 63.0856 6.70483 62.523C5.84874 61.936 5.22501 60.9698 4.83366 59.6246C4.4423 58.2793 4.29554 56.457 4.39338 54.1578L4.57683 49.2047H1.09131L1.16469 45.9393H4.72359L4.87035 41.9034L9.16303 41.3531L9.49324 41.3164L9.52993 41.6466C9.40763 41.8178 9.29756 42.0013 9.19973 42.197C9.12635 42.3682 9.07743 42.6495 9.05297 43.0408L8.79614 45.9393H14.2996L14.2629 49.2047H8.75945L8.53931 54.0844C8.46593 55.6743 8.51485 56.8973 8.68607 57.7534C8.88175 58.6095 9.16303 59.2087 9.52993 59.5512C9.92129 59.8691 10.386 60.0281 10.9241 60.0281C11.7069 60.0281 12.404 59.8691 13.0154 59.5512C13.6514 59.2332 14.2384 58.8663 14.7766 58.4505L15.6571 61.459C14.801 62.0705 13.9082 62.5475 12.9788 62.8899C12.0493 63.2079 11.0464 63.3669 9.97021 63.3669ZM19.3628 38.3812H23.8389V38.7114C23.7166 38.8582 23.631 39.0294 23.5821 39.2251C23.5576 39.3963 23.5454 39.6776 23.5454 40.069V48.1774C24.1569 47.2968 24.9151 46.6364 25.8201 46.1961C26.7251 45.7559 27.6302 45.5357 28.5352 45.5357C30.174 45.5357 31.4948 46.0983 32.4977 47.2234C33.5005 48.3241 34.0019 50.1464 34.0019 52.6902V63H29.8193V52.7636C29.8193 51.2715 29.5992 50.232 29.1589 49.645C28.7431 49.0335 28.1683 48.7277 27.4345 48.7277C26.3827 48.7277 25.4655 49.1313 24.6828 49.9385C23.9245 50.7212 23.5454 51.8097 23.5454 53.2039V63H19.3628V38.3812ZM45.6326 63.4036C43.9937 63.4036 42.5262 63.0611 41.2298 62.3763C39.9579 61.6914 38.955 60.6886 38.2212 59.3677C37.4874 58.0469 37.1206 56.457 37.1206 54.5981C37.1206 52.6902 37.4752 51.0636 38.1846 49.7183C38.9183 48.3731 39.8845 47.3457 41.083 46.6364C42.306 45.9026 43.6635 45.5357 45.1556 45.5357C46.4764 45.5357 47.6872 45.8415 48.7879 46.453C49.913 47.0645 50.8058 47.9939 51.4662 49.2414C52.1511 50.4644 52.4935 51.9931 52.4935 53.8276C52.4935 54.0722 52.4813 54.3657 52.4568 54.7081C52.4568 55.0506 52.4446 55.3441 52.4201 55.5887H41.1197C41.1686 56.6649 41.4255 57.5455 41.8902 58.2303C42.3549 58.8908 42.9297 59.38 43.6146 59.6979C44.2995 60.0159 45.0333 60.1749 45.816 60.1749C46.5743 60.1749 47.2958 60.0526 47.9807 59.808C48.6656 59.5634 49.3015 59.1476 49.8886 58.5606L52.0166 60.6152C51.1849 61.5936 50.231 62.3029 49.1548 62.7432C48.0785 63.1834 46.9045 63.4036 45.6326 63.4036ZM41.1931 52.4701H48.4577C48.4577 51.2715 48.1519 50.3543 47.5404 49.7183C46.9289 49.0824 46.0728 48.7644 44.9721 48.7644C44.0182 48.7644 43.1866 49.0702 42.4772 49.6817C41.7679 50.2687 41.3399 51.1982 41.1931 52.4701ZM74.6908 63V59.7346H79.4971V41.6466H74.9109V38.3812H83.6797V59.7346H88.4494V63H74.6908ZM97.9887 63.4403C96.1053 63.4403 94.6377 63 93.5859 62.1194C92.5586 61.2389 92.045 60.0771 92.045 58.6339C92.045 56.8239 92.8521 55.3319 94.4665 54.1578C96.1053 52.9593 98.4779 52.36 101.584 52.36C101.755 52.36 101.976 52.36 102.245 52.36C102.538 52.36 102.844 52.3722 103.162 52.3967C102.991 50.978 102.587 50.0241 101.951 49.5349C101.315 49.0212 100.459 48.7644 99.3829 48.7644C98.6002 48.7644 97.8664 48.8989 97.1815 49.168C96.4966 49.4126 95.8118 49.8773 95.1269 50.5622L92.8521 48.0673C93.8305 47.1623 94.8945 46.5141 96.0441 46.1228C97.1937 45.7314 98.3678 45.5357 99.5663 45.5357C100.985 45.5357 102.281 45.7681 103.455 46.2328C104.63 46.6731 105.559 47.4558 106.244 48.581C106.929 49.6817 107.271 51.2104 107.271 53.1672V63H102.978V61.1655C102.343 62.0216 101.609 62.6209 100.777 62.9633C99.9455 63.2813 99.016 63.4403 97.9887 63.4403ZM96.1909 58.1203C96.1909 58.903 96.4355 59.4533 96.9247 59.7713C97.4383 60.0648 98.0621 60.2116 98.7959 60.2116C100.117 60.2116 101.144 59.8202 101.878 59.0375C102.612 58.2303 103.052 56.9707 103.199 55.2585C102.881 55.2585 102.575 55.2585 102.281 55.2585C101.988 55.234 101.731 55.2218 101.511 55.2218C99.5541 55.2218 98.1721 55.4909 97.365 56.029C96.5823 56.5671 96.1909 57.2642 96.1909 58.1203ZM120.039 63.3669C118.718 63.3669 117.63 63.0856 116.774 62.523C115.918 61.936 115.294 60.9698 114.903 59.6246C114.511 58.2793 114.365 56.457 114.462 54.1578L114.646 49.2047H111.16L111.234 45.9393H114.793L114.939 41.9034L119.232 41.3531L119.562 41.3164L119.599 41.6466C119.477 41.8178 119.367 42.0013 119.269 42.197C119.195 42.3682 119.146 42.6495 119.122 43.0408L118.865 45.9393H124.369L124.332 49.2047H118.828L118.608 54.0844C118.535 55.6743 118.584 56.8973 118.755 57.7534C118.951 58.6095 119.232 59.2087 119.599 59.5512C119.99 59.8691 120.455 60.0281 120.993 60.0281C121.776 60.0281 122.473 59.8691 123.084 59.5512C123.72 59.2332 124.307 58.8663 124.846 58.4505L125.726 61.459C124.87 62.0705 123.977 62.5475 123.048 62.8899C122.118 63.2079 121.115 63.3669 120.039 63.3669ZM137.357 63.4036C135.718 63.4036 134.25 63.0611 132.954 62.3763C131.682 61.6914 130.679 60.6886 129.945 59.3677C129.212 58.0469 128.845 56.457 128.845 54.5981C128.845 52.6902 129.199 51.0636 129.909 49.7183C130.642 48.3731 131.609 47.3457 132.807 46.6364C134.03 45.9026 135.388 45.5357 136.88 45.5357C138.201 45.5357 139.411 45.8415 140.512 46.453C141.637 47.0645 142.53 47.9939 143.19 49.2414C143.875 50.4644 144.218 51.9931 144.218 53.8276C144.218 54.0722 144.205 54.3657 144.181 54.7081C144.181 55.0506 144.169 55.3441 144.144 55.5887H132.844C132.893 56.6649 133.15 57.5455 133.614 58.2303C134.079 58.8908 134.654 59.38 135.339 59.6979C136.024 60.0159 136.757 60.1749 137.54 60.1749C138.298 60.1749 139.02 60.0526 139.705 59.808C140.39 59.5634 141.026 59.1476 141.613 58.5606L143.741 60.6152C142.909 61.5936 141.955 62.3029 140.879 62.7432C139.803 63.1834 138.629 63.4036 137.357 63.4036ZM132.917 52.4701H140.182C140.182 51.2715 139.876 50.3543 139.265 49.7183C138.653 49.0824 137.797 48.7644 136.696 48.7644C135.742 48.7644 134.911 49.0702 134.201 49.6817C133.492 50.2687 133.064 51.1982 132.917 52.4701ZM155.261 63.4036C153.696 63.4036 152.253 63.1957 150.932 62.7799C149.611 62.364 148.437 61.6669 147.41 60.6886L149.244 57.3131L149.391 57.0196L149.684 57.203C149.758 57.3743 149.831 57.5699 149.905 57.7901C149.978 57.9857 150.161 58.2181 150.455 58.4872C151.066 59.0008 151.751 59.4044 152.51 59.6979C153.292 59.9914 154.234 60.1382 155.335 60.1382C156.362 60.1382 157.157 59.967 157.719 59.6246C158.282 59.2821 158.563 58.8296 158.563 58.267C158.563 57.7045 158.245 57.252 157.609 56.9095C156.998 56.5671 155.983 56.188 154.564 55.7721C152.705 55.2829 151.225 54.6225 150.125 53.7909C149.024 52.9593 148.474 51.8463 148.474 50.4521C148.474 49.0579 149.073 47.8961 150.271 46.9666C151.494 46.0127 153.133 45.5357 155.188 45.5357C158.001 45.5357 160.288 46.404 162.049 48.1407L160.031 50.9658L159.774 51.2593L159.517 51.0392C159.493 50.8435 159.432 50.66 159.334 50.4888C159.26 50.3176 159.077 50.0852 158.783 49.7917C158.294 49.4493 157.732 49.1925 157.096 49.0212C156.484 48.8256 155.873 48.7277 155.261 48.7277C154.43 48.7277 153.708 48.8623 153.097 49.1313C152.51 49.4004 152.216 49.8162 152.216 50.3788C152.216 50.868 152.534 51.2838 153.17 51.6262C153.806 51.9686 154.894 52.3355 156.435 52.7269C158.49 53.2406 159.982 53.9254 160.911 54.7815C161.841 55.6131 162.306 56.6894 162.306 58.0102C162.306 58.9886 162.037 59.8936 161.498 60.7252C160.96 61.5324 160.165 62.1806 159.114 62.6698C158.086 63.159 156.802 63.4036 155.261 63.4036ZM175.074 63.3669C173.753 63.3669 172.664 63.0856 171.808 62.523C170.952 61.936 170.328 60.9698 169.937 59.6246C169.546 58.2793 169.399 56.457 169.497 54.1578L169.68 49.2047H166.195L166.268 45.9393H169.827L169.974 41.9034L174.266 41.3531L174.597 41.3164L174.633 41.6466C174.511 41.8178 174.401 42.0013 174.303 42.197C174.23 42.3682 174.181 42.6495 174.156 43.0408L173.9 45.9393H179.403L179.366 49.2047H173.863L173.643 54.0844C173.569 55.6743 173.618 56.8973 173.79 57.7534C173.985 58.6095 174.266 59.2087 174.633 59.5512C175.025 59.8691 175.489 60.0281 176.028 60.0281C176.81 60.0281 177.507 59.8691 178.119 59.5512C178.755 59.2332 179.342 58.8663 179.88 58.4505L180.761 61.459C179.904 62.0705 179.012 62.5475 178.082 62.8899C177.153 63.2079 176.15 63.3669 175.074 63.3669ZM202.811 63V45.9393H206.957V48.2874C207.568 47.4558 208.278 46.7954 209.085 46.3062C209.892 45.7926 210.822 45.5357 211.873 45.5357C212.852 45.5357 213.757 45.7803 214.588 46.2695C215.445 46.7343 216.129 47.4925 216.643 48.5443C217.157 49.596 217.414 50.978 217.414 52.6902V63H213.268V52.7636C213.268 51.3694 213.047 50.3543 212.607 49.7183C212.167 49.0579 211.555 48.7277 210.773 48.7277C210.161 48.7277 209.562 48.8989 208.975 49.2414C208.388 49.5594 207.899 50.0241 207.507 50.6356C207.14 51.2471 206.957 51.9809 206.957 52.837V63H202.811ZM229.081 63.4036C227.442 63.4036 225.974 63.0611 224.678 62.3763C223.406 61.6914 222.403 60.6886 221.67 59.3677C220.936 58.0469 220.569 56.457 220.569 54.5981C220.569 52.6902 220.924 51.0636 221.633 49.7183C222.367 48.3731 223.333 47.3457 224.531 46.6364C225.754 45.9026 227.112 45.5357 228.604 45.5357C229.925 45.5357 231.135 45.8415 232.236 46.453C233.361 47.0645 234.254 47.9939 234.914 49.2414C235.599 50.4644 235.942 51.9931 235.942 53.8276C235.942 54.0722 235.93 54.3657 235.905 54.7081C235.905 55.0506 235.893 55.3441 235.868 55.5887H224.568C224.617 56.6649 224.874 57.5455 225.338 58.2303C225.803 58.8908 226.378 59.38 227.063 59.6979C227.748 60.0159 228.482 60.1749 229.264 60.1749C230.023 60.1749 230.744 60.0526 231.429 59.808C232.114 59.5634 232.75 59.1476 233.337 58.5606L235.465 60.6152C234.633 61.5936 233.679 62.3029 232.603 62.7432C231.527 63.1834 230.353 63.4036 229.081 63.4036ZM224.641 52.4701H231.906C231.906 51.2715 231.6 50.3543 230.989 49.7183C230.377 49.0824 229.521 48.7644 228.42 48.7644C227.466 48.7644 226.635 49.0702 225.926 49.6817C225.216 50.2687 224.788 51.1982 224.641 52.4701ZM240.968 63L237.813 45.9393H241.409L243.353 57.6066L245.775 47.8472H247.939L250.801 57.5332C251.095 55.3808 251.315 53.6564 251.462 52.36C251.608 51.0392 251.706 49.9752 251.755 49.168C251.804 48.3364 251.828 47.5903 251.828 46.9299V45.9393H255.351C255.204 47.7493 254.996 49.6327 254.727 51.5895C254.458 53.5463 254.152 55.5031 253.81 57.4599C253.492 59.3922 253.161 61.2389 252.819 63H249.187L246.802 53.7542L244.601 63H240.968ZM265.33 63.4036C263.765 63.4036 262.322 63.1957 261.001 62.7799C259.68 62.364 258.506 61.6669 257.479 60.6886L259.313 57.3131L259.46 57.0196L259.753 57.203C259.827 57.3743 259.9 57.5699 259.974 57.7901C260.047 57.9857 260.23 58.2181 260.524 58.4872C261.135 59.0008 261.82 59.4044 262.578 59.6979C263.361 59.9914 264.303 60.1382 265.404 60.1382C266.431 60.1382 267.226 59.967 267.788 59.6246C268.351 59.2821 268.632 58.8296 268.632 58.267C268.632 57.7045 268.314 57.252 267.678 56.9095C267.067 56.5671 266.052 56.188 264.633 55.7721C262.774 55.2829 261.294 54.6225 260.194 53.7909C259.093 52.9593 258.543 51.8463 258.543 50.4521C258.543 49.0579 259.142 47.8961 260.34 46.9666C261.563 46.0127 263.202 45.5357 265.257 45.5357C268.07 45.5357 270.357 46.404 272.118 48.1407L270.1 50.9658L269.843 51.2593L269.586 51.0392C269.562 50.8435 269.501 50.66 269.403 50.4888C269.329 50.3176 269.146 50.0852 268.852 49.7917C268.363 49.4493 267.801 49.1925 267.165 49.0212C266.553 48.8256 265.942 48.7277 265.33 48.7277C264.499 48.7277 263.777 48.8623 263.166 49.1313C262.578 49.4004 262.285 49.8162 262.285 50.3788C262.285 50.868 262.603 51.2838 263.239 51.6262C263.875 51.9686 264.963 52.3355 266.504 52.7269C268.559 53.2406 270.051 53.9254 270.98 54.7815C271.91 55.6131 272.375 56.6894 272.375 58.0102C272.375 58.9886 272.106 59.8936 271.567 60.7252C271.029 61.5324 270.234 62.1806 269.183 62.6698C268.155 63.159 266.871 63.4036 265.33 63.4036ZM299.782 63.4403C297.898 63.4403 296.431 63 295.379 62.1194C294.352 61.2389 293.838 60.0771 293.838 58.6339C293.838 56.8239 294.645 55.3319 296.26 54.1578C297.898 52.9593 300.271 52.36 303.377 52.36C303.549 52.36 303.769 52.36 304.038 52.36C304.331 52.36 304.637 52.3722 304.955 52.3967C304.784 50.978 304.38 50.0241 303.744 49.5349C303.108 49.0212 302.252 48.7644 301.176 48.7644C300.393 48.7644 299.659 48.8989 298.975 49.168C298.29 49.4126 297.605 49.8773 296.92 50.5622L294.645 48.0673C295.624 47.1623 296.688 46.5141 297.837 46.1228C298.987 45.7314 300.161 45.5357 301.359 45.5357C302.778 45.5357 304.074 45.7681 305.249 46.2328C306.423 46.6731 307.352 47.4558 308.037 48.581C308.722 49.6817 309.064 51.2104 309.064 53.1672V63H304.772V61.1655C304.136 62.0216 303.402 62.6209 302.57 62.9633C301.739 63.2813 300.809 63.4403 299.782 63.4403ZM297.984 58.1203C297.984 58.903 298.229 59.4533 298.718 59.7713C299.231 60.0648 299.855 60.2116 300.589 60.2116C301.91 60.2116 302.937 59.8202 303.671 59.0375C304.405 58.2303 304.845 56.9707 304.992 55.2585C304.674 55.2585 304.368 55.2585 304.074 55.2585C303.781 55.234 303.524 55.2218 303.304 55.2218C301.347 55.2218 299.965 55.4909 299.158 56.029C298.375 56.5671 297.984 57.2642 297.984 58.1203ZM321.098 63.4403C320.193 63.4403 319.337 63.2446 318.53 62.8532C317.723 62.4619 317.038 61.8871 316.476 61.1288L315.778 63H312.623V38.3812H317.136V38.7114C316.989 38.8582 316.891 39.0294 316.842 39.2251C316.818 39.3963 316.806 39.6776 316.806 40.069V47.8472C317.319 47.1378 317.968 46.5753 318.75 46.1594C319.558 45.7192 320.401 45.5113 321.282 45.5357C323.361 45.5602 325.024 46.294 326.272 47.7371C327.544 49.1558 328.18 51.3082 328.18 54.1945C328.18 56.2736 327.849 57.998 327.189 59.3677C326.529 60.7375 325.66 61.7648 324.584 62.4497C323.508 63.1101 322.346 63.4403 321.098 63.4403ZM320.255 60.2116C321.282 60.2116 322.162 59.7958 322.896 58.9641C323.655 58.108 324.034 56.6405 324.034 54.5614C324.034 52.7024 323.703 51.2593 323.043 50.232C322.407 49.1802 321.502 48.6543 320.328 48.6543C319.252 48.6543 318.396 49.168 317.76 50.1953C317.148 51.1982 316.842 52.5924 316.842 54.3779C316.842 56.2613 317.112 57.7045 317.65 58.7073C318.212 59.7102 319.081 60.2116 320.255 60.2116ZM338.343 63.3669C336.826 63.3669 335.444 63 334.197 62.2662C332.974 61.508 332.008 60.4684 331.298 59.1476C330.589 57.8023 330.234 56.2369 330.234 54.4513C330.234 52.7636 330.589 51.2471 331.298 49.9018C332.008 48.5565 332.974 47.4925 334.197 46.7098C335.444 45.9271 336.826 45.5357 338.343 45.5357C339.884 45.5357 341.266 45.9271 342.489 46.7098C343.736 47.4925 344.714 48.5565 345.424 49.9018C346.158 51.2471 346.524 52.7636 346.524 54.4513C346.524 56.2124 346.158 57.7656 345.424 59.1109C344.714 60.4562 343.736 61.508 342.489 62.2662C341.266 63 339.884 63.3669 338.343 63.3669ZM338.343 60.0648C339.517 60.0648 340.483 59.5512 341.241 58.5239C341.999 57.4721 342.378 56.1146 342.378 54.4513C342.378 52.7391 341.999 51.3816 341.241 50.3788C340.483 49.3759 339.517 48.8745 338.343 48.8745C337.217 48.8745 336.276 49.3759 335.518 50.3788C334.759 51.3816 334.38 52.7391 334.38 54.4513C334.38 56.1146 334.747 57.4721 335.481 58.5239C336.239 59.5512 337.193 60.0648 338.343 60.0648ZM355.33 63.4403C353.593 63.4403 352.162 62.8532 351.037 61.6792C349.912 60.5051 349.35 58.5972 349.35 55.9556V45.9393H353.532V55.9556C353.532 57.4721 353.777 58.5483 354.266 59.1843C354.78 59.7958 355.416 60.1015 356.174 60.1015C357.201 60.1015 358.033 59.7346 358.669 59.0008C359.329 58.267 359.659 57.1541 359.659 55.6621V45.9393H363.805V60.285C363.805 60.8231 363.817 61.3123 363.842 61.7526C363.891 62.1684 364.001 62.5842 364.172 63H360.393C360.197 62.6331 360.087 62.2662 360.063 61.8993C360.038 61.5324 360.026 61.1655 360.026 60.7986C359.513 61.6792 358.828 62.3396 357.972 62.7799C357.14 63.2201 356.259 63.4403 355.33 63.4403ZM376.867 63.3669C375.546 63.3669 374.457 63.0856 373.601 62.523C372.745 61.936 372.122 60.9698 371.73 59.6246C371.339 58.2793 371.192 56.457 371.29 54.1578L371.473 49.2047H367.988L368.061 45.9393H371.62L371.767 41.9034L376.06 41.3531L376.39 41.3164L376.426 41.6466C376.304 41.8178 376.194 42.0013 376.096 42.197C376.023 42.3682 375.974 42.6495 375.95 43.0408L375.693 45.9393H381.196L381.159 49.2047H375.656L375.436 54.0844C375.362 55.6743 375.411 56.8973 375.583 57.7534C375.778 58.6095 376.06 59.2087 376.426 59.5512C376.818 59.8691 377.283 60.0281 377.821 60.0281C378.603 60.0281 379.301 59.8691 379.912 59.5512C380.548 59.2332 381.135 58.8663 381.673 58.4505L382.554 61.459C381.698 62.0705 380.805 62.5475 379.875 62.8899C378.946 63.2079 377.943 63.3669 376.867 63.3669ZM411.722 63.3669C410.205 63.3669 408.823 63 407.576 62.2662C406.353 61.508 405.387 60.4684 404.678 59.1476C403.968 57.8023 403.614 56.2369 403.614 54.4513C403.614 52.7636 403.968 51.2471 404.678 49.9018C405.387 48.5565 406.353 47.4925 407.576 46.7098C408.823 45.9271 410.205 45.5357 411.722 45.5357C413.263 45.5357 414.645 45.9271 415.868 46.7098C417.115 47.4925 418.094 48.5565 418.803 49.9018C419.537 51.2471 419.904 52.7636 419.904 54.4513C419.904 56.2124 419.537 57.7656 418.803 59.1109C418.094 60.4562 417.115 61.508 415.868 62.2662C414.645 63 413.263 63.3669 411.722 63.3669ZM411.722 60.0648C412.896 60.0648 413.862 59.5512 414.62 58.5239C415.379 57.4721 415.758 56.1146 415.758 54.4513C415.758 52.7391 415.379 51.3816 414.62 50.3788C413.862 49.3759 412.896 48.8745 411.722 48.8745C410.597 48.8745 409.655 49.3759 408.897 50.3788C408.139 51.3816 407.759 52.7391 407.759 54.4513C407.759 56.1146 408.126 57.4721 408.86 58.5239C409.618 59.5512 410.572 60.0648 411.722 60.0648ZM428.709 63.4403C426.973 63.4403 425.542 62.8532 424.417 61.6792C423.291 60.5051 422.729 58.5972 422.729 55.9556V45.9393H426.911V55.9556C426.911 57.4721 427.156 58.5483 427.645 59.1843C428.159 59.7958 428.795 60.1015 429.553 60.1015C430.58 60.1015 431.412 59.7346 432.048 59.0008C432.708 58.267 433.039 57.1541 433.039 55.6621V45.9393H437.185V60.285C437.185 60.8231 437.197 61.3123 437.221 61.7526C437.27 62.1684 437.38 62.5842 437.551 63H433.772C433.577 62.6331 433.467 62.2662 433.442 61.8993C433.418 61.5324 433.406 61.1655 433.406 60.7986C432.892 61.6792 432.207 62.3396 431.351 62.7799C430.519 63.2201 429.639 63.4403 428.709 63.4403ZM442.541 45.9393H446.834L446.797 48.691C447.262 47.7126 447.947 46.9422 448.852 46.3796C449.757 45.817 450.711 45.5357 451.714 45.5357C453.622 45.5357 455.199 46.1839 456.447 47.4803L454.686 50.9658L454.575 51.2593L454.245 51.1126C454.172 50.9169 454.099 50.7212 454.025 50.5255C453.952 50.3054 453.768 50.0608 453.475 49.7917C453.132 49.5227 452.765 49.3148 452.374 49.168C452.007 49.0212 451.604 48.9479 451.163 48.9479C449.989 48.9479 448.962 49.3514 448.081 50.1586C447.201 50.9658 446.761 52.2622 446.761 54.0477V63H442.541V45.9393ZM477.727 69.1272L477.69 45.9026H481.799V48.2874C482.337 47.3335 483.022 46.6364 483.854 46.1961C484.685 45.7559 485.603 45.5357 486.606 45.5357C487.853 45.5357 488.978 45.8782 489.981 46.563C491.008 47.2234 491.828 48.2263 492.439 49.5716C493.051 50.8924 493.356 52.5434 493.356 54.5247C493.356 56.5304 493.038 58.1937 492.402 59.5145C491.767 60.8353 490.923 61.8259 489.871 62.4863C488.844 63.1223 487.731 63.4403 486.532 63.4403C485.627 63.4403 484.759 63.2813 483.927 62.9633C483.096 62.6453 482.435 62.1684 481.946 61.5324V69.1272H477.727ZM485.395 60.2116C486.104 60.2116 486.752 60.0281 487.339 59.6612C487.926 59.2943 488.391 58.6829 488.734 57.8268C489.076 56.9707 489.247 55.7966 489.247 54.3046C489.247 52.6168 488.917 51.2838 488.257 50.3054C487.621 49.327 486.74 48.8256 485.615 48.8011C484.441 48.7766 483.524 49.2414 482.863 50.1953C482.227 51.1248 481.909 52.6535 481.909 54.7815C481.958 58.4016 483.12 60.2116 485.395 60.2116ZM497.576 45.9393H501.868L501.832 48.691C502.296 47.7126 502.981 46.9422 503.886 46.3796C504.791 45.817 505.745 45.5357 506.748 45.5357C508.656 45.5357 510.234 46.1839 511.481 47.4803L509.72 50.9658L509.61 51.2593L509.28 51.1126C509.206 50.9169 509.133 50.7212 509.06 50.5255C508.986 50.3054 508.803 50.0608 508.509 49.7917C508.167 49.5227 507.8 49.3148 507.409 49.168C507.042 49.0212 506.638 48.9479 506.198 48.9479C505.024 48.9479 503.996 49.3514 503.116 50.1586C502.235 50.9658 501.795 52.2622 501.795 54.0477V63H497.576V45.9393ZM521.791 63.3669C520.274 63.3669 518.892 63 517.645 62.2662C516.422 61.508 515.456 60.4684 514.746 59.1476C514.037 57.8023 513.682 56.2369 513.682 54.4513C513.682 52.7636 514.037 51.2471 514.746 49.9018C515.456 48.5565 516.422 47.4925 517.645 46.7098C518.892 45.9271 520.274 45.5357 521.791 45.5357C523.332 45.5357 524.714 45.9271 525.937 46.7098C527.184 47.4925 528.163 48.5565 528.872 49.9018C529.606 51.2471 529.973 52.7636 529.973 54.4513C529.973 56.2124 529.606 57.7656 528.872 59.1109C528.163 60.4562 527.184 61.508 525.937 62.2662C524.714 63 523.332 63.3669 521.791 63.3669ZM521.791 60.0648C522.965 60.0648 523.931 59.5512 524.689 58.5239C525.448 57.4721 525.827 56.1146 525.827 54.4513C525.827 52.7391 525.448 51.3816 524.689 50.3788C523.931 49.3759 522.965 48.8745 521.791 48.8745C520.666 48.8745 519.724 49.3759 518.966 50.3788C518.208 51.3816 517.828 52.7391 517.828 54.4513C517.828 56.1146 518.195 57.4721 518.929 58.5239C519.687 59.5512 520.641 60.0648 521.791 60.0648ZM539.292 63.4036C538.02 63.4036 536.846 63.0734 535.77 62.413C534.718 61.7526 533.862 60.7497 533.201 59.4044C532.541 58.0591 532.211 56.3836 532.211 54.3779C532.211 52.3967 532.529 50.7579 533.165 49.4615C533.801 48.1407 534.657 47.1501 535.733 46.4897C536.809 45.8292 538.008 45.499 539.329 45.499C540.185 45.499 540.98 45.658 541.713 45.976C542.447 46.294 543.022 46.8076 543.438 47.517V38.3812H547.877V38.7114C547.73 38.8582 547.633 39.0294 547.584 39.2251C547.559 39.3963 547.547 39.6776 547.547 40.069L547.51 60.7252C547.51 61.1166 547.535 61.4957 547.584 61.8626C547.633 62.2295 547.743 62.6086 547.914 63H543.841C543.646 62.6086 543.536 62.3029 543.511 62.0828C543.487 61.8382 543.474 61.5202 543.474 61.1288C543.01 61.9115 542.41 62.4863 541.677 62.8532C540.943 63.2201 540.148 63.4036 539.292 63.4036ZM539.989 60.0648C542.239 60.0648 543.364 58.1814 543.364 54.4146C543.364 50.6234 542.203 48.7277 539.879 48.7277C538.705 48.7277 537.812 49.2291 537.201 50.232C536.589 51.2349 536.283 52.5924 536.283 54.3046C536.283 56.1146 536.638 57.5332 537.347 58.5606C538.081 59.5634 538.962 60.0648 539.989 60.0648ZM557.123 63.4403C555.386 63.4403 553.956 62.8532 552.83 61.6792C551.705 60.5051 551.143 58.5972 551.143 55.9556V45.9393H555.325V55.9556C555.325 57.4721 555.57 58.5483 556.059 59.1843C556.573 59.7958 557.209 60.1015 557.967 60.1015C558.994 60.1015 559.826 59.7346 560.462 59.0008C561.122 58.267 561.452 57.1541 561.452 55.6621V45.9393H565.598V60.285C565.598 60.8231 565.611 61.3123 565.635 61.7526C565.684 62.1684 565.794 62.5842 565.965 63H562.186C561.991 62.6331 561.88 62.2662 561.856 61.8993C561.832 61.5324 561.819 61.1655 561.819 60.7986C561.306 61.6792 560.621 62.3396 559.765 62.7799C558.933 63.2201 558.053 63.4403 557.123 63.4403ZM577.889 63.4403C576.226 63.4403 574.734 63.0611 573.413 62.3029C572.092 61.5446 571.041 60.5051 570.258 59.1843C569.5 57.839 569.121 56.3103 569.121 54.5981C569.121 52.9103 569.5 51.3816 570.258 50.0119C571.041 48.6421 572.092 47.5537 573.413 46.7465C574.734 45.9393 576.238 45.5357 577.926 45.5357C579.491 45.5357 580.861 45.8292 582.035 46.4163C583.209 47.0033 584.139 47.8105 584.824 48.8378L582.512 51.3694L582.292 51.6262L581.999 51.4061C581.999 51.1859 581.974 50.9903 581.925 50.819C581.876 50.6234 581.717 50.3665 581.448 50.0486C580.984 49.6083 580.458 49.3025 579.871 49.1313C579.308 48.9601 578.672 48.8745 577.963 48.8745C577.156 48.8745 576.397 49.0946 575.688 49.5349C574.979 49.9752 574.404 50.6234 573.964 51.4794C573.548 52.3355 573.34 53.3751 573.34 54.5981C573.34 55.6988 573.56 56.6649 574 57.4966C574.441 58.3037 575.015 58.9397 575.725 59.4044C576.458 59.8447 577.241 60.0648 578.073 60.0648C578.831 60.0648 579.577 59.9058 580.311 59.5879C581.045 59.2699 581.73 58.7195 582.365 57.9368L584.677 60.5785C583.772 61.5813 582.72 62.3151 581.522 62.7799C580.323 63.2201 579.112 63.4403 577.889 63.4403ZM597.005 63.3669C595.684 63.3669 594.595 63.0856 593.739 62.523C592.883 61.936 592.259 60.9698 591.868 59.6246C591.477 58.2793 591.33 56.457 591.428 54.1578L591.611 49.2047H588.126L588.199 45.9393H591.758L591.905 41.9034L596.198 41.3531L596.528 41.3164L596.564 41.6466C596.442 41.8178 596.332 42.0013 596.234 42.197C596.161 42.3682 596.112 42.6495 596.087 43.0408L595.831 45.9393H601.334L601.297 49.2047H595.794L595.574 54.0844C595.5 55.6743 595.549 56.8973 595.721 57.7534C595.916 58.6095 596.198 59.2087 596.564 59.5512C596.956 59.8691 597.421 60.0281 597.959 60.0281C598.741 60.0281 599.438 59.8691 600.05 59.5512C600.686 59.2332 601.273 58.8663 601.811 58.4505L602.692 61.459C601.835 62.0705 600.943 62.5475 600.013 62.8899C599.084 63.2079 598.081 63.3669 597.005 63.3669ZM613.882 63.4036C612.317 63.4036 610.873 63.1957 609.553 62.7799C608.232 62.364 607.058 61.6669 606.03 60.6886L607.865 57.3131L608.012 57.0196L608.305 57.203C608.379 57.3743 608.452 57.5699 608.525 57.7901C608.599 57.9857 608.782 58.2181 609.076 58.4872C609.687 59.0008 610.372 59.4044 611.13 59.6979C611.913 59.9914 612.855 60.1382 613.955 60.1382C614.983 60.1382 615.778 59.967 616.34 59.6246C616.903 59.2821 617.184 58.8296 617.184 58.267C617.184 57.7045 616.866 57.252 616.23 56.9095C615.619 56.5671 614.604 56.188 613.185 55.7721C611.326 55.2829 609.846 54.6225 608.745 53.7909C607.645 52.9593 607.094 51.8463 607.094 50.4521C607.094 49.0579 607.694 47.8961 608.892 46.9666C610.115 46.0127 611.754 45.5357 613.809 45.5357C616.621 45.5357 618.908 46.404 620.67 48.1407L618.652 50.9658L618.395 51.2593L618.138 51.0392C618.113 50.8435 618.052 50.66 617.955 50.4888C617.881 50.3176 617.698 50.0852 617.404 49.7917C616.915 49.4493 616.352 49.1925 615.716 49.0212C615.105 48.8256 614.493 48.7277 613.882 48.7277C613.05 48.7277 612.329 48.8623 611.717 49.1313C611.13 49.4004 610.837 49.8162 610.837 50.3788C610.837 50.868 611.155 51.2838 611.791 51.6262C612.427 51.9686 613.515 52.3355 615.056 52.7269C617.111 53.2406 618.603 53.9254 619.532 54.7815C620.462 55.6131 620.926 56.6894 620.926 58.0102C620.926 58.9886 620.657 59.8936 620.119 60.7252C619.581 61.5324 618.786 62.1806 617.734 62.6698C616.707 63.159 615.423 63.4036 613.882 63.4036Z" fill="black"/>
</svg>
