<svg width="586" height="108" viewBox="0 0 586 108" fill="none" xmlns="http://www.w3.org/2000/svg">
<path d="M3.37545 25L0.366897 2.14234H3.96248L5.50345 16.488L8.43862 3.94014H10.64L13.5752 16.4513L14.7859 2.14234H18.1614L15.1895 25H12.5846L9.35586 10.9112L6.05379 25H3.37545ZM28.2877 25.4036C26.6489 25.4036 25.1813 25.0611 23.885 24.3763C22.6131 23.6914 21.6102 22.6886 20.8764 21.3677C20.1426 20.0469 19.7757 18.457 19.7757 16.5981C19.7757 14.6902 20.1304 13.0636 20.8397 11.7183C21.5735 10.3731 22.5397 9.34575 23.7382 8.63641C24.9612 7.90262 26.3187 7.53572 27.8108 7.53572C29.1316 7.53572 30.3423 7.84147 31.443 8.45296C32.5682 9.06446 33.461 9.99393 34.1214 11.2414C34.8063 12.4644 35.1487 13.9931 35.1487 15.8276C35.1487 16.0722 35.1365 16.3657 35.112 16.7081C35.112 17.0506 35.0998 17.3441 35.0753 17.5887H23.7749C23.8238 18.6649 24.0806 19.5455 24.5454 20.2303C25.0101 20.8908 25.5849 21.38 26.2698 21.6979C26.9547 22.0159 27.6885 22.1749 28.4712 22.1749C29.2294 22.1749 29.951 22.0526 30.6359 21.808C31.3207 21.5634 31.9567 21.1476 32.5437 20.5606L34.6717 22.6152C33.8401 23.5936 32.8862 24.3029 31.8099 24.7432C30.7337 25.1834 29.5596 25.4036 28.2877 25.4036ZM23.8483 14.4701H31.1128C31.1128 13.2715 30.8071 12.3543 30.1956 11.7183C29.5841 11.0824 28.728 10.7644 27.6273 10.7644C26.6734 10.7644 25.8417 11.0702 25.1324 11.6817C24.4231 12.2687 23.995 13.1982 23.8483 14.4701ZM39.0011 25V21.7346H43.8074V3.64662H39.2212V0.381241H47.9901V21.7346H52.7597V25H39.0011ZM65.2342 25.4403C63.5709 25.4403 62.0789 25.0611 60.7581 24.3029C59.4372 23.5446 58.3855 22.5051 57.6028 21.1843C56.8445 19.839 56.4654 18.3103 56.4654 16.5981C56.4654 14.9103 56.8445 13.3816 57.6028 12.0119C58.3855 10.6421 59.4372 9.55365 60.7581 8.74648C62.0789 7.93931 63.5832 7.53572 65.2709 7.53572C66.8363 7.53572 68.2061 7.82924 69.3801 8.41627C70.5542 9.00331 71.4837 9.81048 72.1686 10.8378L69.8571 13.3694L69.637 13.6262L69.3435 13.4061C69.3435 13.1859 69.319 12.9903 69.2701 12.819C69.2212 12.6234 69.0622 12.3665 68.7931 12.0486C68.3284 11.6083 67.8025 11.3025 67.2155 11.1313C66.6529 10.9601 66.0169 10.8745 65.3076 10.8745C64.5004 10.8745 63.7422 11.0946 63.0328 11.5349C62.3235 11.9752 61.7487 12.6234 61.3084 13.4794C60.8926 14.3355 60.6847 15.3751 60.6847 16.5981C60.6847 17.6988 60.9048 18.6649 61.3451 19.4966C61.7854 20.3037 62.3602 20.9397 63.0695 21.4044C63.8033 21.8447 64.586 22.0648 65.4177 22.0648C66.1759 22.0648 66.9219 21.9058 67.6557 21.5879C68.3895 21.2699 69.0744 20.7195 69.7103 19.9368L72.0218 22.5785C71.1168 23.5813 70.065 24.3151 68.8665 24.7799C67.668 25.2201 66.4572 25.4403 65.2342 25.4403ZM82.515 25.3669C80.9985 25.3669 79.6166 25 78.3691 24.2662C77.1461 23.508 76.18 22.4684 75.4706 21.1476C74.7613 19.8023 74.4066 18.2369 74.4066 16.4513C74.4066 14.7636 74.7613 13.2471 75.4706 11.9018C76.18 10.5565 77.1461 9.4925 78.3691 8.70979C79.6166 7.92708 80.9985 7.53572 82.515 7.53572C84.056 7.53572 85.438 7.92708 86.661 8.70979C87.9084 9.4925 88.8868 10.5565 89.5961 11.9018C90.3299 13.2471 90.6968 14.7636 90.6968 16.4513C90.6968 18.2124 90.3299 19.7656 89.5961 21.1109C88.8868 22.4562 87.9084 23.508 86.661 24.2662C85.438 25 84.056 25.3669 82.515 25.3669ZM82.515 22.0648C83.6891 22.0648 84.6553 21.5512 85.4135 20.5239C86.1718 19.4721 86.5509 18.1146 86.5509 16.4513C86.5509 14.7391 86.1718 13.3816 85.4135 12.3788C84.6553 11.3759 83.6891 10.8745 82.515 10.8745C81.3899 10.8745 80.4482 11.3759 79.6899 12.3788C78.9317 13.3816 78.5526 14.7391 78.5526 16.4513C78.5526 18.1146 78.9194 19.4721 79.6532 20.5239C80.4115 21.5512 81.3654 22.0648 82.515 22.0648ZM92.8248 25V7.93931H96.3103V9.18676C96.7262 8.59972 97.1909 8.18391 97.7046 7.93931C98.2182 7.67025 98.7441 7.53572 99.2822 7.53572C99.8937 7.53572 100.456 7.69471 100.97 8.01269C101.508 8.33067 101.912 8.85655 102.181 9.59034C102.939 8.2206 104.137 7.53572 105.776 7.53572C107.024 7.53572 107.917 7.976 108.455 8.85655C109.017 9.71264 109.286 10.8989 109.262 12.4154V25H105.666V13.296C105.666 12.1953 105.581 11.4615 105.409 11.0946C105.238 10.7033 104.981 10.5076 104.639 10.5076C104.15 10.5076 103.709 10.8378 103.318 11.4982C102.927 12.1342 102.731 12.9903 102.731 14.0665V25H99.3556V13.4061C99.3556 12.232 99.27 11.4493 99.0988 11.0579C98.9275 10.6666 98.6096 10.4709 98.1448 10.4709C97.7046 10.4709 97.301 10.7644 96.9341 11.3514C96.5916 11.914 96.4204 12.7457 96.4204 13.8463V25H92.8248ZM120.012 25.4036C118.373 25.4036 116.905 25.0611 115.609 24.3763C114.337 23.6914 113.334 22.6886 112.601 21.3677C111.867 20.0469 111.5 18.457 111.5 16.5981C111.5 14.6902 111.855 13.0636 112.564 11.7183C113.298 10.3731 114.264 9.34575 115.462 8.63641C116.685 7.90262 118.043 7.53572 119.535 7.53572C120.856 7.53572 122.066 7.84147 123.167 8.45296C124.292 9.06446 125.185 9.99393 125.846 11.2414C126.53 12.4644 126.873 13.9931 126.873 15.8276C126.873 16.0722 126.861 16.3657 126.836 16.7081C126.836 17.0506 126.824 17.3441 126.799 17.5887H115.499C115.548 18.6649 115.805 19.5455 116.27 20.2303C116.734 20.8908 117.309 21.38 117.994 21.6979C118.679 22.0159 119.413 22.1749 120.195 22.1749C120.954 22.1749 121.675 22.0526 122.36 21.808C123.045 21.5634 123.681 21.1476 124.268 20.5606L126.396 22.6152C125.564 23.5936 124.61 24.3029 123.534 24.7432C122.458 25.1834 121.284 25.4036 120.012 25.4036ZM115.572 14.4701H122.837C122.837 13.2715 122.531 12.3543 121.92 11.7183C121.308 11.0824 120.452 10.7644 119.351 10.7644C118.398 10.7644 117.566 11.0702 116.857 11.6817C116.147 12.2687 115.719 13.1982 115.572 14.4701ZM148.116 25V2.14234H155.087C157.827 2.14234 159.857 2.68046 161.178 3.75669C162.498 4.83292 163.159 6.2149 163.159 7.90262C163.159 8.88101 162.878 9.84717 162.315 10.8011C161.777 11.755 160.982 12.4399 159.93 12.8557C161.178 13.3938 162.168 14.1643 162.902 15.1672C163.66 16.1456 164.039 17.2218 164.039 18.3959C164.039 20.3771 163.293 21.9792 161.801 23.2022C160.334 24.4007 158.083 25 155.05 25H148.116ZM152.262 11.2781H154.757C156.371 11.2781 157.472 11.009 158.059 10.4709C158.671 9.90832 158.976 9.17453 158.976 8.26952C158.976 7.43788 158.671 6.76524 158.059 6.25158C157.448 5.73793 156.469 5.4811 155.124 5.4811H152.262V11.2781ZM152.262 21.5879H155.491C156.787 21.5879 157.814 21.3066 158.573 20.744C159.355 20.1814 159.747 19.362 159.747 18.2858C159.747 17.1851 159.38 16.2923 158.646 15.6074C157.937 14.9226 156.677 14.5801 154.867 14.5801H152.262V21.5879ZM172.368 25.4403C170.485 25.4403 169.017 25 167.965 24.1194C166.938 23.2389 166.424 22.0771 166.424 20.6339C166.424 18.8239 167.231 17.3319 168.846 16.1578C170.485 14.9593 172.857 14.36 175.964 14.36C176.135 14.36 176.355 14.36 176.624 14.36C176.918 14.36 177.223 14.3722 177.541 14.3967C177.37 12.978 176.966 12.0241 176.33 11.5349C175.695 11.0212 174.838 10.7644 173.762 10.7644C172.98 10.7644 172.246 10.8989 171.561 11.168C170.876 11.4126 170.191 11.8773 169.506 12.5622L167.231 10.0673C168.21 9.1623 169.274 8.51411 170.423 8.12276C171.573 7.7314 172.747 7.53572 173.946 7.53572C175.364 7.53572 176.661 7.76809 177.835 8.23283C179.009 8.6731 179.938 9.45582 180.623 10.581C181.308 11.6817 181.65 13.2104 181.65 15.1672V25H177.358V23.1655C176.722 24.0216 175.988 24.6209 175.156 24.9633C174.325 25.2813 173.395 25.4403 172.368 25.4403ZM170.57 20.1203C170.57 20.903 170.815 21.4533 171.304 21.7713C171.818 22.0648 172.441 22.2116 173.175 22.2116C174.496 22.2116 175.523 21.8202 176.257 21.0375C176.991 20.2303 177.431 18.9707 177.578 17.2585C177.26 17.2585 176.954 17.2585 176.661 17.2585C176.367 17.234 176.11 17.2218 175.89 17.2218C173.933 17.2218 172.551 17.4909 171.744 18.029C170.962 18.5671 170.57 19.2642 170.57 20.1203ZM193.648 25.4403C191.985 25.4403 190.493 25.0611 189.172 24.3029C187.851 23.5446 186.799 22.5051 186.017 21.1843C185.258 19.839 184.879 18.3103 184.879 16.5981C184.879 14.9103 185.258 13.3816 186.017 12.0119C186.799 10.6421 187.851 9.55365 189.172 8.74648C190.493 7.93931 191.997 7.53572 193.685 7.53572C195.25 7.53572 196.62 7.82924 197.794 8.41627C198.968 9.00331 199.897 9.81048 200.582 10.8378L198.271 13.3694L198.051 13.6262L197.757 13.4061C197.757 13.1859 197.733 12.9903 197.684 12.819C197.635 12.6234 197.476 12.3665 197.207 12.0486C196.742 11.6083 196.216 11.3025 195.629 11.1313C195.067 10.9601 194.431 10.8745 193.721 10.8745C192.914 10.8745 192.156 11.0946 191.447 11.5349C190.737 11.9752 190.162 12.6234 189.722 13.4794C189.306 14.3355 189.098 15.3751 189.098 16.5981C189.098 17.6988 189.319 18.6649 189.759 19.4966C190.199 20.3037 190.774 20.9397 191.483 21.4044C192.217 21.8447 193 22.0648 193.831 22.0648C194.59 22.0648 195.336 21.9058 196.07 21.5879C196.803 21.2699 197.488 20.7195 198.124 19.9368L200.436 22.5785C199.531 23.5813 198.479 24.3151 197.28 24.7799C196.082 25.2201 194.871 25.4403 193.648 25.4403ZM209.278 17.2585L207.92 18.616V25H203.701V0.381241H208.214V0.711446C208.067 0.858206 207.981 1.02942 207.957 1.2251C207.933 1.39632 207.92 1.67761 207.92 2.06897V14.1032L214.451 7.79255C214.818 7.86593 215.246 7.92708 215.735 7.976C216.224 8.02492 216.628 8.04938 216.946 8.04938H218.927L212.14 14.6902L219.844 24.9633L215.111 25.1468L209.278 17.2585ZM227.476 17.3686L226.485 3.60993C226.412 2.50924 226.632 1.70207 227.146 1.18841C227.659 0.674758 228.271 0.41793 228.98 0.41793C229.689 0.41793 230.301 0.674758 230.815 1.18841C231.328 1.67761 231.548 2.5337 231.475 3.75669L230.411 17.3686H227.476ZM228.907 25.3669C228.1 25.3669 227.415 25.1101 226.852 24.5964C226.29 24.0583 226.008 23.4101 226.008 22.6519C226.008 21.8936 226.29 21.2332 226.852 20.6706C227.415 20.108 228.1 19.8268 228.907 19.8268C229.738 19.8268 230.436 20.1203 230.998 20.7073C231.585 21.2699 231.879 21.9181 231.879 22.6519C231.879 23.3857 231.573 24.0216 230.961 24.5597C230.374 25.0978 229.689 25.3669 228.907 25.3669ZM7.00772 63V43.6279H0.843862V40.1423H17.4643V43.6279H10.9702V63H7.00772ZM27.4806 63.3669C25.964 63.3669 24.5821 63 23.3346 62.2662C22.1116 61.508 21.1455 60.4684 20.4361 59.1476C19.7268 57.8023 19.3721 56.2369 19.3721 54.4513C19.3721 52.7636 19.7268 51.2471 20.4361 49.9018C21.1455 48.5565 22.1116 47.4925 23.3346 46.7098C24.5821 45.9271 25.964 45.5357 27.4806 45.5357C29.0215 45.5357 30.4035 45.9271 31.6265 46.7098C32.8739 47.4925 33.8523 48.5565 34.5617 49.9018C35.2954 51.2471 35.6623 52.7636 35.6623 54.4513C35.6623 56.2124 35.2954 57.7656 34.5617 59.1109C33.8523 60.4562 32.8739 61.508 31.6265 62.2662C30.4035 63 29.0215 63.3669 27.4806 63.3669ZM27.4806 60.0648C28.6546 60.0648 29.6208 59.5512 30.379 58.5239C31.1373 57.4721 31.5164 56.1146 31.5164 54.4513C31.5164 52.7391 31.1373 51.3816 30.379 50.3788C29.6208 49.3759 28.6546 48.8745 27.4806 48.8745C26.3554 48.8745 25.4137 49.3759 24.6554 50.3788C23.8972 51.3816 23.5181 52.7391 23.5181 54.4513C23.5181 56.1146 23.885 57.4721 24.6188 58.5239C25.377 59.5512 26.3309 60.0648 27.4806 60.0648ZM62.5192 55.2585L61.1617 56.616V63H56.9423V38.3812H61.4552V38.7114C61.3084 38.8582 61.2228 39.0294 61.1983 39.2251C61.1739 39.3963 61.1617 39.6776 61.1617 40.069V52.1032L67.6924 45.7926C68.0593 45.8659 68.4874 45.9271 68.9766 45.976C69.4657 46.0249 69.8693 46.0494 70.1873 46.0494H72.1686L65.381 52.6902L73.0858 62.9633L68.3528 63.1468L62.5192 55.2585ZM83.3222 63.4036C81.6834 63.4036 80.2158 63.0611 78.9194 62.3763C77.6475 61.6914 76.6447 60.6886 75.9109 59.3677C75.1771 58.0469 74.8102 56.457 74.8102 54.5981C74.8102 52.6902 75.1649 51.0636 75.8742 49.7183C76.608 48.3731 77.5742 47.3457 78.7727 46.6364C79.9957 45.9026 81.3532 45.5357 82.8452 45.5357C84.1661 45.5357 85.3768 45.8415 86.4775 46.453C87.6027 47.0645 88.4954 47.9939 89.1559 49.2414C89.8407 50.4644 90.1832 51.9931 90.1832 53.8276C90.1832 54.0722 90.1709 54.3657 90.1465 54.7081C90.1465 55.0506 90.1343 55.3441 90.1098 55.5887H78.8094C78.8583 56.6649 79.1151 57.5455 79.5799 58.2303C80.0446 58.8908 80.6194 59.38 81.3043 59.6979C81.9892 60.0159 82.7229 60.1749 83.5057 60.1749C84.2639 60.1749 84.9855 60.0526 85.6703 59.808C86.3552 59.5634 86.9912 59.1476 87.5782 58.5606L89.7062 60.6152C88.8746 61.5936 87.9206 62.3029 86.8444 62.7432C85.7682 63.1834 84.5941 63.4036 83.3222 63.4036ZM78.8828 52.4701H86.1473C86.1473 51.2715 85.8416 50.3543 85.2301 49.7183C84.6186 49.0824 83.7625 48.7644 82.6618 48.7644C81.7079 48.7644 80.8762 49.0702 80.1669 49.6817C79.4576 50.2687 79.0295 51.1982 78.8828 52.4701ZM101.667 63.4036C100.028 63.4036 98.5606 63.0611 97.2643 62.3763C95.9924 61.6914 94.9895 60.6886 94.2557 59.3677C93.5219 58.0469 93.155 56.457 93.155 54.5981C93.155 52.6902 93.5097 51.0636 94.219 49.7183C94.9528 48.3731 95.919 47.3457 97.1175 46.6364C98.3405 45.9026 99.698 45.5357 101.19 45.5357C102.511 45.5357 103.722 45.8415 104.822 46.453C105.947 47.0645 106.84 47.9939 107.501 49.2414C108.186 50.4644 108.528 51.9931 108.528 53.8276C108.528 54.0722 108.516 54.3657 108.491 54.7081C108.491 55.0506 108.479 55.3441 108.455 55.5887H97.1542C97.2031 56.6649 97.46 57.5455 97.9247 58.2303C98.3894 58.8908 98.9642 59.38 99.6491 59.6979C100.334 60.0159 101.068 60.1749 101.85 60.1749C102.609 60.1749 103.33 60.0526 104.015 59.808C104.7 59.5634 105.336 59.1476 105.923 58.5606L108.051 60.6152C107.219 61.5936 106.265 62.3029 105.189 62.7432C104.113 63.1834 102.939 63.4036 101.667 63.4036ZM97.2276 52.4701H104.492C104.492 51.2715 104.186 50.3543 103.575 49.7183C102.963 49.0824 102.107 48.7644 101.007 48.7644C100.053 48.7644 99.2211 49.0702 98.5117 49.6817C97.8024 50.2687 97.3743 51.1982 97.2276 52.4701ZM111.83 69.1272L111.793 45.9026H115.903V48.2874C116.441 47.3335 117.126 46.6364 117.957 46.1961C118.789 45.7559 119.706 45.5357 120.709 45.5357C121.956 45.5357 123.082 45.8782 124.084 46.563C125.112 47.2234 125.931 48.2263 126.543 49.5716C127.154 50.8924 127.46 52.5434 127.46 54.5247C127.46 56.5304 127.142 58.1937 126.506 59.5145C125.87 60.8353 125.026 61.8259 123.974 62.4863C122.947 63.1223 121.834 63.4403 120.636 63.4403C119.731 63.4403 118.862 63.2813 118.031 62.9633C117.199 62.6453 116.539 62.1684 116.049 61.5324V69.1272H111.83ZM119.498 60.2116C120.208 60.2116 120.856 60.0281 121.443 59.6612C122.03 59.2943 122.495 58.6829 122.837 57.8268C123.179 56.9707 123.351 55.7966 123.351 54.3046C123.351 52.6168 123.02 51.2838 122.36 50.3054C121.724 49.327 120.843 48.8256 119.718 48.8011C118.544 48.7766 117.627 49.2414 116.967 50.1953C116.331 51.1248 116.013 52.6535 116.013 54.7815C116.062 58.4016 117.223 60.2116 119.498 60.2116ZM156.958 63.4403C155.295 63.4403 153.803 63.0611 152.482 62.3029C151.161 61.5446 150.11 60.5051 149.327 59.1843C148.569 57.839 148.19 56.3103 148.19 54.5981C148.19 52.9103 148.569 51.3816 149.327 50.0119C150.11 48.6421 151.161 47.5537 152.482 46.7465C153.803 45.9393 155.307 45.5357 156.995 45.5357C158.56 45.5357 159.93 45.8292 161.104 46.4163C162.278 47.0033 163.208 47.8105 163.893 48.8378L161.581 51.3694L161.361 51.6262L161.068 51.4061C161.068 51.1859 161.043 50.9903 160.994 50.819C160.945 50.6234 160.786 50.3665 160.517 50.0486C160.053 49.6083 159.527 49.3025 158.94 49.1313C158.377 48.9601 157.741 48.8745 157.032 48.8745C156.225 48.8745 155.466 49.0946 154.757 49.5349C154.048 49.9752 153.473 50.6234 153.033 51.4794C152.617 52.3355 152.409 53.3751 152.409 54.5981C152.409 55.6988 152.629 56.6649 153.069 57.4966C153.51 58.3037 154.084 58.9397 154.794 59.4044C155.527 59.8447 156.31 60.0648 157.142 60.0648C157.9 60.0648 158.646 59.9058 159.38 59.5879C160.114 59.2699 160.799 58.7195 161.434 57.9368L163.746 60.5785C162.841 61.5813 161.789 62.3151 160.591 62.7799C159.392 63.2201 158.181 63.4403 156.958 63.4403ZM174.239 63.3669C172.723 63.3669 171.341 63 170.093 62.2662C168.87 61.508 167.904 60.4684 167.195 59.1476C166.485 57.8023 166.131 56.2369 166.131 54.4513C166.131 52.7636 166.485 51.2471 167.195 49.9018C167.904 48.5565 168.87 47.4925 170.093 46.7098C171.341 45.9271 172.723 45.5357 174.239 45.5357C175.78 45.5357 177.162 45.9271 178.385 46.7098C179.633 47.4925 180.611 48.5565 181.32 49.9018C182.054 51.2471 182.421 52.7636 182.421 54.4513C182.421 56.2124 182.054 57.7656 181.32 59.1109C180.611 60.4562 179.633 61.508 178.385 62.2662C177.162 63 175.78 63.3669 174.239 63.3669ZM174.239 60.0648C175.413 60.0648 176.379 59.5512 177.138 58.5239C177.896 57.4721 178.275 56.1146 178.275 54.4513C178.275 52.7391 177.896 51.3816 177.138 50.3788C176.379 49.3759 175.413 48.8745 174.239 48.8745C173.114 48.8745 172.172 49.3759 171.414 50.3788C170.656 51.3816 170.277 52.7391 170.277 54.4513C170.277 56.1146 170.644 57.4721 171.377 58.5239C172.136 59.5512 173.09 60.0648 174.239 60.0648ZM185.466 63V45.9393H189.612V48.2874C190.224 47.4558 190.933 46.7954 191.74 46.3062C192.547 45.7926 193.477 45.5357 194.529 45.5357C195.507 45.5357 196.412 45.7803 197.244 46.2695C198.1 46.7343 198.785 47.4925 199.298 48.5443C199.812 49.596 200.069 50.978 200.069 52.6902V63H195.923V52.7636C195.923 51.3694 195.703 50.3543 195.262 49.7183C194.822 49.0579 194.211 48.7277 193.428 48.7277C192.816 48.7277 192.217 48.8989 191.63 49.2414C191.043 49.5594 190.554 50.0241 190.162 50.6356C189.796 51.2471 189.612 51.9809 189.612 52.837V63H185.466ZM203.811 63V45.9393H207.957V48.2874C208.568 47.4558 209.278 46.7954 210.085 46.3062C210.892 45.7926 211.822 45.5357 212.873 45.5357C213.852 45.5357 214.757 45.7803 215.588 46.2695C216.445 46.7343 217.129 47.4925 217.643 48.5443C218.157 49.596 218.414 50.978 218.414 52.6902V63H214.268V52.7636C214.268 51.3694 214.047 50.3543 213.607 49.7183C213.167 49.0579 212.555 48.7277 211.773 48.7277C211.161 48.7277 210.562 48.8989 209.975 49.2414C209.388 49.5594 208.899 50.0241 208.507 50.6356C208.14 51.2471 207.957 51.9809 207.957 52.837V63H203.811ZM230.081 63.4036C228.442 63.4036 226.974 63.0611 225.678 62.3763C224.406 61.6914 223.403 60.6886 222.67 59.3677C221.936 58.0469 221.569 56.457 221.569 54.5981C221.569 52.6902 221.924 51.0636 222.633 49.7183C223.367 48.3731 224.333 47.3457 225.531 46.6364C226.754 45.9026 228.112 45.5357 229.604 45.5357C230.925 45.5357 232.135 45.8415 233.236 46.453C234.361 47.0645 235.254 47.9939 235.914 49.2414C236.599 50.4644 236.942 51.9931 236.942 53.8276C236.942 54.0722 236.93 54.3657 236.905 54.7081C236.905 55.0506 236.893 55.3441 236.868 55.5887H225.568C225.617 56.6649 225.874 57.5455 226.338 58.2303C226.803 58.8908 227.378 59.38 228.063 59.6979C228.748 60.0159 229.482 60.1749 230.264 60.1749C231.023 60.1749 231.744 60.0526 232.429 59.808C233.114 59.5634 233.75 59.1476 234.337 58.5606L236.465 60.6152C235.633 61.5936 234.679 62.3029 233.603 62.7432C232.527 63.1834 231.353 63.4036 230.081 63.4036ZM225.641 52.4701H232.906C232.906 51.2715 232.6 50.3543 231.989 49.7183C231.377 49.0824 230.521 48.7644 229.42 48.7644C228.466 48.7644 227.635 49.0702 226.926 49.6817C226.216 50.2687 225.788 51.1982 225.641 52.4701ZM248.682 63.4403C247.019 63.4403 245.527 63.0611 244.206 62.3029C242.886 61.5446 241.834 60.5051 241.051 59.1843C240.293 57.839 239.914 56.3103 239.914 54.5981C239.914 52.9103 240.293 51.3816 241.051 50.0119C241.834 48.6421 242.886 47.5537 244.206 46.7465C245.527 45.9393 247.031 45.5357 248.719 45.5357C250.285 45.5357 251.654 45.8292 252.828 46.4163C254.002 47.0033 254.932 47.8105 255.617 48.8378L253.305 51.3694L253.085 51.6262L252.792 51.4061C252.792 51.1859 252.767 50.9903 252.718 50.819C252.669 50.6234 252.51 50.3665 252.241 50.0486C251.777 49.6083 251.251 49.3025 250.664 49.1313C250.101 48.9601 249.465 48.8745 248.756 48.8745C247.949 48.8745 247.19 49.0946 246.481 49.5349C245.772 49.9752 245.197 50.6234 244.757 51.4794C244.341 52.3355 244.133 53.3751 244.133 54.5981C244.133 55.6988 244.353 56.6649 244.793 57.4966C245.234 58.3037 245.808 58.9397 246.518 59.4044C247.252 59.8447 248.034 60.0648 248.866 60.0648C249.624 60.0648 250.37 59.9058 251.104 59.5879C251.838 59.2699 252.523 58.7195 253.159 57.9368L255.47 60.5785C254.565 61.5813 253.513 62.3151 252.315 62.7799C251.116 63.2201 249.905 63.4403 248.682 63.4403ZM267.798 63.3669C266.477 63.3669 265.388 63.0856 264.532 62.523C263.676 61.936 263.053 60.9698 262.661 59.6246C262.27 58.2793 262.123 56.457 262.221 54.1578L262.404 49.2047H258.919L258.992 45.9393H262.551L262.698 41.9034L266.991 41.3531L267.321 41.3164L267.358 41.6466C267.235 41.8178 267.125 42.0013 267.027 42.197C266.954 42.3682 266.905 42.6495 266.881 43.0408L266.624 45.9393H272.127L272.09 49.2047H266.587L266.367 54.0844C266.294 55.6743 266.342 56.8973 266.514 57.7534C266.709 58.6095 266.991 59.2087 267.358 59.5512C267.749 59.8691 268.214 60.0281 268.752 60.0281C269.534 60.0281 270.232 59.8691 270.843 59.5512C271.479 59.2332 272.066 58.8663 272.604 58.4505L273.485 61.459C272.629 62.0705 271.736 62.5475 270.806 62.8899C269.877 63.2079 268.874 63.3669 267.798 63.3669ZM285.115 63.4036C283.477 63.4036 282.009 63.0611 280.713 62.3763C279.441 61.6914 278.438 60.6886 277.704 59.3677C276.97 58.0469 276.603 56.457 276.603 54.5981C276.603 52.6902 276.958 51.0636 277.667 49.7183C278.401 48.3731 279.367 47.3457 280.566 46.6364C281.789 45.9026 283.146 45.5357 284.638 45.5357C285.959 45.5357 287.17 45.8415 288.271 46.453C289.396 47.0645 290.289 47.9939 290.949 49.2414C291.634 50.4644 291.976 51.9931 291.976 53.8276C291.976 54.0722 291.964 54.3657 291.94 54.7081C291.94 55.0506 291.927 55.3441 291.903 55.5887H280.602C280.651 56.6649 280.908 57.5455 281.373 58.2303C281.838 58.8908 282.413 59.38 283.097 59.6979C283.782 60.0159 284.516 60.1749 285.299 60.1749C286.057 60.1749 286.779 60.0526 287.463 59.808C288.148 59.5634 288.784 59.1476 289.371 58.5606L291.499 60.6152C290.668 61.5936 289.714 62.3029 288.638 62.7432C287.561 63.1834 286.387 63.4036 285.115 63.4036ZM280.676 52.4701H287.94C287.94 51.2715 287.635 50.3543 287.023 49.7183C286.412 49.0824 285.556 48.7644 284.455 48.7644C283.501 48.7644 282.669 49.0702 281.96 49.6817C281.251 50.2687 280.823 51.1982 280.676 52.4701ZM301.809 63.4036C300.537 63.4036 299.363 63.0734 298.287 62.413C297.235 61.7526 296.379 60.7497 295.719 59.4044C295.058 58.0591 294.728 56.3836 294.728 54.3779C294.728 52.3967 295.046 50.7579 295.682 49.4615C296.318 48.1407 297.174 47.1501 298.25 46.4897C299.326 45.8292 300.525 45.499 301.846 45.499C302.702 45.499 303.497 45.658 304.231 45.976C304.964 46.294 305.539 46.8076 305.955 47.517V38.3812H310.394V38.7114C310.248 38.8582 310.15 39.0294 310.101 39.2251C310.077 39.3963 310.064 39.6776 310.064 40.069L310.028 60.7252C310.028 61.1166 310.052 61.4957 310.101 61.8626C310.15 62.2295 310.26 62.6086 310.431 63H306.359C306.163 62.6086 306.053 62.3029 306.028 62.0828C306.004 61.8382 305.992 61.5202 305.992 61.1288C305.527 61.9115 304.928 62.4863 304.194 62.8532C303.46 63.2201 302.665 63.4036 301.809 63.4036ZM302.506 60.0648C304.757 60.0648 305.882 58.1814 305.882 54.4146C305.882 50.6234 304.72 48.7277 302.396 48.7277C301.222 48.7277 300.329 49.2291 299.718 50.232C299.106 51.2349 298.801 52.5924 298.801 54.3046C298.801 56.1146 299.155 57.5332 299.865 58.5606C300.598 59.5634 301.479 60.0648 302.506 60.0648ZM333.692 63L330.537 45.9393H334.133L336.077 57.6066L338.499 47.8472H340.663L343.525 57.5332C343.819 55.3808 344.039 53.6564 344.186 52.36C344.332 51.0392 344.43 49.9752 344.479 49.168C344.528 48.3364 344.553 47.5903 344.553 46.9299V45.9393H348.075C347.928 47.7493 347.72 49.6327 347.451 51.5895C347.182 53.5463 346.876 55.5031 346.534 57.4599C346.216 59.3922 345.886 61.2389 345.543 63H341.911L339.526 53.7542L337.325 63H333.692ZM351.634 63V59.7346H355.816V49.2047H351.854V45.9393H359.999V59.7346H363.815V63H351.634ZM357.724 43.1142C356.99 43.1142 356.367 42.8696 355.853 42.3804C355.364 41.8912 355.119 41.3042 355.119 40.6193C355.119 39.91 355.364 39.3229 355.853 38.8582C356.342 38.369 356.966 38.1244 357.724 38.1244C358.409 38.1244 359.008 38.369 359.522 38.8582C360.06 39.3474 360.329 39.9344 360.329 40.6193C360.329 41.3042 360.06 41.8912 359.522 42.3804C359.008 42.8696 358.409 43.1142 357.724 43.1142ZM377.867 63.3669C376.546 63.3669 375.457 63.0856 374.601 62.523C373.745 61.936 373.122 60.9698 372.73 59.6246C372.339 58.2793 372.192 56.457 372.29 54.1578L372.473 49.2047H368.988L369.061 45.9393H372.62L372.767 41.9034L377.06 41.3531L377.39 41.3164L377.426 41.6466C377.304 41.8178 377.194 42.0013 377.096 42.197C377.023 42.3682 376.974 42.6495 376.95 43.0408L376.693 45.9393H382.196L382.159 49.2047H376.656L376.436 54.0844C376.362 55.6743 376.411 56.8973 376.583 57.7534C376.778 58.6095 377.06 59.2087 377.426 59.5512C377.818 59.8691 378.283 60.0281 378.821 60.0281C379.603 60.0281 380.301 59.8691 380.912 59.5512C381.548 59.2332 382.135 58.8663 382.673 58.4505L383.554 61.459C382.698 62.0705 381.805 62.5475 380.875 62.8899C379.946 63.2079 378.943 63.3669 377.867 63.3669ZM387.259 38.3812H391.735V38.7114C391.613 38.8582 391.528 39.0294 391.479 39.2251C391.454 39.3963 391.442 39.6776 391.442 40.069V48.1774C392.053 47.2968 392.812 46.6364 393.717 46.1961C394.622 45.7559 395.527 45.5357 396.432 45.5357C398.071 45.5357 399.391 46.0983 400.394 47.2234C401.397 48.3241 401.898 50.1464 401.898 52.6902V63H397.716V52.7636C397.716 51.2715 397.496 50.232 397.055 49.645C396.64 49.0335 396.065 48.7277 395.331 48.7277C394.279 48.7277 393.362 49.1313 392.579 49.9385C391.821 50.7212 391.442 51.8097 391.442 53.2039V63H387.259V38.3812ZM429.709 63.4403C427.973 63.4403 426.542 62.8532 425.417 61.6792C424.291 60.5051 423.729 58.5972 423.729 55.9556V45.9393H427.911V55.9556C427.911 57.4721 428.156 58.5483 428.645 59.1843C429.159 59.7958 429.795 60.1015 430.553 60.1015C431.58 60.1015 432.412 59.7346 433.048 59.0008C433.708 58.267 434.039 57.1541 434.039 55.6621V45.9393H438.185V60.285C438.185 60.8231 438.197 61.3123 438.221 61.7526C438.27 62.1684 438.38 62.5842 438.551 63H434.772C434.577 62.6331 434.467 62.2662 434.442 61.8993C434.418 61.5324 434.406 61.1655 434.406 60.7986C433.892 61.6792 433.207 62.3396 432.351 62.7799C431.519 63.2201 430.639 63.4403 429.709 63.4403ZM449.778 63.4036C448.213 63.4036 446.77 63.1957 445.449 62.7799C444.128 62.364 442.954 61.6669 441.927 60.6886L443.761 57.3131L443.908 57.0196L444.202 57.203C444.275 57.3743 444.348 57.5699 444.422 57.7901C444.495 57.9857 444.679 58.2181 444.972 58.4872C445.584 59.0008 446.269 59.4044 447.027 59.6979C447.809 59.9914 448.751 60.1382 449.852 60.1382C450.879 60.1382 451.674 59.967 452.237 59.6246C452.799 59.2821 453.081 58.8296 453.081 58.267C453.081 57.7045 452.763 57.252 452.127 56.9095C451.515 56.5671 450.5 56.188 449.081 55.7721C447.222 55.2829 445.743 54.6225 444.642 53.7909C443.541 52.9593 442.991 51.8463 442.991 50.4521C442.991 49.0579 443.59 47.8961 444.789 46.9666C446.012 46.0127 447.65 45.5357 449.705 45.5357C452.518 45.5357 454.805 46.404 456.566 48.1407L454.548 50.9658L454.291 51.2593L454.035 51.0392C454.01 50.8435 453.949 50.66 453.851 50.4888C453.778 50.3176 453.594 50.0852 453.301 49.7917C452.812 49.4493 452.249 49.1925 451.613 49.0212C451.001 48.8256 450.39 48.7277 449.778 48.7277C448.947 48.7277 448.225 48.8623 447.614 49.1313C447.027 49.4004 446.733 49.8162 446.733 50.3788C446.733 50.868 447.051 51.2838 447.687 51.6262C448.323 51.9686 449.412 52.3355 450.953 52.7269C453.007 53.2406 454.499 53.9254 455.429 54.7815C456.358 55.6131 456.823 56.6894 456.823 58.0102C456.823 58.9886 456.554 59.8936 456.016 60.7252C455.478 61.5324 454.683 62.1806 453.631 62.6698C452.604 63.159 451.319 63.4036 449.778 63.4036ZM478.727 69.1272L478.69 45.9026H482.799V48.2874C483.337 47.3335 484.022 46.6364 484.854 46.1961C485.685 45.7559 486.603 45.5357 487.606 45.5357C488.853 45.5357 489.978 45.8782 490.981 46.563C492.008 47.2234 492.828 48.2263 493.439 49.5716C494.051 50.8924 494.356 52.5434 494.356 54.5247C494.356 56.5304 494.038 58.1937 493.402 59.5145C492.767 60.8353 491.923 61.8259 490.871 62.4863C489.844 63.1223 488.731 63.4403 487.532 63.4403C486.627 63.4403 485.759 63.2813 484.927 62.9633C484.096 62.6453 483.435 62.1684 482.946 61.5324V69.1272H478.727ZM486.395 60.2116C487.104 60.2116 487.752 60.0281 488.339 59.6612C488.926 59.2943 489.391 58.6829 489.734 57.8268C490.076 56.9707 490.247 55.7966 490.247 54.3046C490.247 52.6168 489.917 51.2838 489.257 50.3054C488.621 49.327 487.74 48.8256 486.615 48.8011C485.441 48.7766 484.524 49.2414 483.863 50.1953C483.227 51.1248 482.909 52.6535 482.909 54.7815C482.958 58.4016 484.12 60.2116 486.395 60.2116ZM497.622 63V59.7346H502.428V41.6466H497.842V38.3812H506.611V59.7346H511.38V63H497.622ZM523.598 63.4036C521.959 63.4036 520.492 63.0611 519.195 62.3763C517.923 61.6914 516.921 60.6886 516.187 59.3677C515.453 58.0469 515.086 56.457 515.086 54.5981C515.086 52.6902 515.441 51.0636 516.15 49.7183C516.884 48.3731 517.85 47.3457 519.049 46.6364C520.272 45.9026 521.629 45.5357 523.121 45.5357C524.442 45.5357 525.653 45.8415 526.753 46.453C527.879 47.0645 528.771 47.9939 529.432 49.2414C530.117 50.4644 530.459 51.9931 530.459 53.8276C530.459 54.0722 530.447 54.3657 530.422 54.7081C530.422 55.0506 530.41 55.3441 530.386 55.5887H519.085C519.134 56.6649 519.391 57.5455 519.856 58.2303C520.32 58.8908 520.895 59.38 521.58 59.6979C522.265 60.0159 522.999 60.1749 523.781 60.1749C524.54 60.1749 525.261 60.0526 525.946 59.808C526.631 59.5634 527.267 59.1476 527.854 58.5606L529.982 60.6152C529.15 61.5936 528.196 62.3029 527.12 62.7432C526.044 63.1834 524.87 63.4036 523.598 63.4036ZM519.159 52.4701H526.423C526.423 51.2715 526.117 50.3543 525.506 49.7183C524.894 49.0824 524.038 48.7644 522.938 48.7644C521.984 48.7644 521.152 49.0702 520.443 49.6817C519.733 50.2687 519.305 51.1982 519.159 52.4701ZM539.265 63.4403C537.381 63.4403 535.914 63 534.862 62.1194C533.834 61.2389 533.321 60.0771 533.321 58.6339C533.321 56.8239 534.128 55.3319 535.742 54.1578C537.381 52.9593 539.754 52.36 542.86 52.36C543.031 52.36 543.251 52.36 543.521 52.36C543.814 52.36 544.12 52.3722 544.438 52.3967C544.267 50.978 543.863 50.0241 543.227 49.5349C542.591 49.0212 541.735 48.7644 540.659 48.7644C539.876 48.7644 539.142 48.8989 538.457 49.168C537.773 49.4126 537.088 49.8773 536.403 50.5622L534.128 48.0673C535.106 47.1623 536.17 46.5141 537.32 46.1228C538.47 45.7314 539.644 45.5357 540.842 45.5357C542.261 45.5357 543.557 45.7681 544.731 46.2328C545.905 46.6731 546.835 47.4558 547.52 48.581C548.205 49.6817 548.547 51.2104 548.547 53.1672V63H544.254V61.1655C543.618 62.0216 542.885 62.6209 542.053 62.9633C541.221 63.2813 540.292 63.4403 539.265 63.4403ZM537.467 58.1203C537.467 58.903 537.711 59.4533 538.201 59.7713C538.714 60.0648 539.338 60.2116 540.072 60.2116C541.393 60.2116 542.42 59.8202 543.154 59.0375C543.887 58.2303 544.328 56.9707 544.474 55.2585C544.157 55.2585 543.851 55.2585 543.557 55.2585C543.264 55.234 543.007 55.2218 542.787 55.2218C540.83 55.2218 539.448 55.4909 538.641 56.029C537.858 56.5671 537.467 57.2642 537.467 58.1203ZM559.847 63.4036C558.282 63.4036 556.839 63.1957 555.518 62.7799C554.197 62.364 553.023 61.6669 551.996 60.6886L553.83 57.3131L553.977 57.0196L554.271 57.203C554.344 57.3743 554.417 57.5699 554.491 57.7901C554.564 57.9857 554.748 58.2181 555.041 58.4872C555.653 59.0008 556.337 59.4044 557.096 59.6979C557.878 59.9914 558.82 60.1382 559.921 60.1382C560.948 60.1382 561.743 59.967 562.306 59.6246C562.868 59.2821 563.15 58.8296 563.15 58.267C563.15 57.7045 562.832 57.252 562.196 56.9095C561.584 56.5671 560.569 56.188 559.15 55.7721C557.291 55.2829 555.812 54.6225 554.711 53.7909C553.61 52.9593 553.06 51.8463 553.06 50.4521C553.06 49.0579 553.659 47.8961 554.858 46.9666C556.081 46.0127 557.719 45.5357 559.774 45.5357C562.587 45.5357 564.874 46.404 566.635 48.1407L564.617 50.9658L564.36 51.2593L564.103 51.0392C564.079 50.8435 564.018 50.66 563.92 50.4888C563.847 50.3176 563.663 50.0852 563.37 49.7917C562.88 49.4493 562.318 49.1925 561.682 49.0212C561.07 48.8256 560.459 48.7277 559.847 48.7277C559.016 48.7277 558.294 48.8623 557.683 49.1313C557.096 49.4004 556.802 49.8162 556.802 50.3788C556.802 50.868 557.12 51.2838 557.756 51.6262C558.392 51.9686 559.481 52.3355 561.022 52.7269C563.076 53.2406 564.568 53.9254 565.498 54.7815C566.427 55.6131 566.892 56.6894 566.892 58.0102C566.892 58.9886 566.623 59.8936 566.085 60.7252C565.547 61.5324 564.752 62.1806 563.7 62.6698C562.673 63.159 561.388 63.4036 559.847 63.4036ZM578.633 63.4036C576.994 63.4036 575.526 63.0611 574.23 62.3763C572.958 61.6914 571.955 60.6886 571.221 59.3677C570.487 58.0469 570.121 56.457 570.121 54.5981C570.121 52.6902 570.475 51.0636 571.185 49.7183C571.918 48.3731 572.884 47.3457 574.083 46.6364C575.306 45.9026 576.664 45.5357 578.156 45.5357C579.476 45.5357 580.687 45.8415 581.788 46.453C582.913 47.0645 583.806 47.9939 584.466 49.2414C585.151 50.4644 585.493 51.9931 585.493 53.8276C585.493 54.0722 585.481 54.3657 585.457 54.7081C585.457 55.0506 585.445 55.3441 585.42 55.5887H574.12C574.169 56.6649 574.425 57.5455 574.89 58.2303C575.355 58.8908 575.93 59.38 576.615 59.6979C577.299 60.0159 578.033 60.1749 578.816 60.1749C579.574 60.1749 580.296 60.0526 580.981 59.808C581.666 59.5634 582.301 59.1476 582.889 58.5606L585.017 60.6152C584.185 61.5936 583.231 62.3029 582.155 62.7432C581.079 63.1834 579.904 63.4036 578.633 63.4036ZM574.193 52.4701H581.458C581.458 51.2715 581.152 50.3543 580.54 49.7183C579.929 49.0824 579.073 48.7644 577.972 48.7644C577.018 48.7644 576.187 49.0702 575.477 49.6817C574.768 50.2687 574.34 51.1982 574.193 52.4701ZM2.31145 101V97.7346H7.11779V79.6466H2.53159V76.3812H11.3004V97.7346H16.0701V101H2.31145ZM27.4806 101.367C25.964 101.367 24.5821 101 23.3346 100.266C22.1116 99.508 21.1455 98.4684 20.4361 97.1476C19.7268 95.8023 19.3721 94.2369 19.3721 92.4513C19.3721 90.7636 19.7268 89.2471 20.4361 87.9018C21.1455 86.5565 22.1116 85.4925 23.3346 84.7098C24.5821 83.9271 25.964 83.5357 27.4806 83.5357C29.0215 83.5357 30.4035 83.9271 31.6265 84.7098C32.8739 85.4925 33.8523 86.5565 34.5617 87.9018C35.2954 89.2471 35.6623 90.7636 35.6623 92.4513C35.6623 94.2124 35.2954 95.7656 34.5617 97.1109C33.8523 98.4562 32.8739 99.508 31.6265 100.266C30.4035 101 29.0215 101.367 27.4806 101.367ZM27.4806 98.0648C28.6546 98.0648 29.6208 97.5512 30.379 96.5239C31.1373 95.4721 31.5164 94.1146 31.5164 92.4513C31.5164 90.7391 31.1373 89.3816 30.379 88.3788C29.6208 87.3759 28.6546 86.8745 27.4806 86.8745C26.3554 86.8745 25.4137 87.3759 24.6554 88.3788C23.8972 89.3816 23.5181 90.7391 23.5181 92.4513C23.5181 94.1146 23.885 95.4721 24.6188 96.5239C25.377 97.5512 26.3309 98.0648 27.4806 98.0648ZM45.1283 95.2397C44.2722 95.2397 43.4528 95.1052 42.6701 94.8361C42.4499 95.0318 42.2665 95.2153 42.1197 95.3865C41.973 95.5332 41.8996 95.7411 41.8996 96.0102C41.8996 96.4505 42.3399 96.7807 43.2204 97.0008C44.101 97.221 45.6052 97.331 47.7332 97.331C49.2008 97.331 50.3504 97.5389 51.1821 97.9548C52.0137 98.3706 52.613 98.9331 52.9799 99.6425C53.3468 100.327 53.5302 101.073 53.5302 101.881C53.5302 102.834 53.2367 103.739 52.6497 104.596C52.0871 105.476 51.2065 106.185 50.008 106.724C48.8339 107.286 47.3174 107.567 45.4585 107.567C43.037 107.567 41.1413 107.152 39.7716 106.32C38.4018 105.513 37.717 104.424 37.717 103.055C37.717 102.321 37.9493 101.636 38.4141 101C38.9033 100.389 39.5025 99.8993 40.2119 99.5324C39.7471 99.2389 39.3802 98.8965 39.1112 98.5051C38.8666 98.0893 38.7443 97.6123 38.7443 97.0742C38.7443 96.3649 38.94 95.7411 39.3313 95.203C39.7227 94.6649 40.1996 94.1635 40.7622 93.6988C40.1507 93.1851 39.6615 92.5614 39.2946 91.8276C38.9522 91.0693 38.781 90.2499 38.781 89.3694C38.781 88.2687 39.05 87.2781 39.5881 86.3975C40.1507 85.4925 40.909 84.7709 41.8629 84.2328C42.8168 83.6947 43.9053 83.4257 45.1283 83.4257C45.911 83.4257 46.657 83.548 47.3663 83.7926C48.0757 84.0371 48.6994 84.3796 49.2375 84.8199C49.8979 84.3551 50.6317 84.0005 51.4389 83.7559C52.2461 83.5113 53.1144 83.4257 54.0439 83.499L54.4474 86.3608C53.8115 86.2385 53.1755 86.2141 52.5396 86.2874C51.9281 86.3608 51.3655 86.532 50.8519 86.8011C51.2432 87.6083 51.4389 88.4644 51.4389 89.3694C51.4389 90.4945 51.1576 91.4974 50.595 92.3779C50.0569 93.2585 49.3109 93.9556 48.357 94.4692C47.403 94.9829 46.3268 95.2397 45.1283 95.2397ZM45.0916 92.2312C45.9232 92.2312 46.6081 91.9621 47.1462 91.424C47.6843 90.8859 47.9534 90.201 47.9534 89.3694C47.9534 88.5622 47.6721 87.9018 47.1095 87.3881C46.5714 86.85 45.8988 86.581 45.0916 86.581C44.3578 86.581 43.6974 86.85 43.1103 87.3881C42.5478 87.9263 42.2665 88.5867 42.2665 89.3694C42.2665 90.1521 42.5355 90.8247 43.0737 91.3873C43.6362 91.9499 44.3089 92.2312 45.0916 92.2312ZM40.909 102.431C40.909 103.091 41.3615 103.568 42.2665 103.862C43.196 104.18 44.37 104.339 45.7887 104.339C47.1829 104.339 48.2469 104.155 48.9807 103.788C49.7389 103.422 50.1181 102.932 50.1181 102.321C50.1181 101.758 49.8735 101.355 49.3843 101.11C48.9195 100.89 47.9901 100.78 46.5959 100.78C45.8376 100.78 45.0916 100.743 44.3578 100.67C43.624 100.596 42.9391 100.486 42.3032 100.34C41.9118 100.633 41.5816 100.939 41.3126 101.257C41.0435 101.575 40.909 101.966 40.909 102.431ZM58.1164 101V97.7346H62.299V87.2047H58.3366V83.9393H66.4817V97.7346H70.2974V101H58.1164ZM64.2069 81.1142C63.4731 81.1142 62.8494 80.8696 62.3357 80.3804C61.8465 79.8912 61.6019 79.3042 61.6019 78.6193C61.6019 77.91 61.8465 77.3229 62.3357 76.8582C62.8249 76.369 63.4486 76.1244 64.2069 76.1244C64.8918 76.1244 65.491 76.369 66.0047 76.8582C66.5428 77.3474 66.8119 77.9344 66.8119 78.6193C66.8119 79.3042 66.5428 79.8912 66.0047 80.3804C65.491 80.8696 64.8918 81.1142 64.2069 81.1142ZM75.3972 101V83.9393H79.5432V86.2874C80.1547 85.4558 80.864 84.7954 81.6712 84.3062C82.4783 83.7926 83.4078 83.5357 84.4596 83.5357C85.438 83.5357 86.343 83.7803 87.1746 84.2695C88.0307 84.7343 88.7156 85.4925 89.2292 86.5443C89.7429 87.596 89.9997 88.978 89.9997 90.6902V101H85.8538V90.7636C85.8538 89.3694 85.6337 88.3543 85.1934 87.7183C84.7531 87.0579 84.1416 86.7277 83.3589 86.7277C82.7474 86.7277 82.1481 86.8989 81.5611 87.2414C80.9741 87.5594 80.4849 88.0241 80.0935 88.6356C79.7266 89.2471 79.5432 89.9809 79.5432 90.837V101H75.3972ZM113.554 101L110.399 83.9393H113.995L115.939 95.6066L118.361 85.8472H120.526L123.387 95.5332C123.681 93.3808 123.901 91.6564 124.048 90.36C124.194 89.0392 124.292 87.9752 124.341 87.168C124.39 86.3364 124.415 85.5903 124.415 84.9299V83.9393H127.937C127.79 85.7493 127.582 87.6327 127.313 89.5895C127.044 91.5463 126.738 93.5031 126.396 95.4599C126.078 97.3922 125.748 99.2389 125.405 101H121.773L119.388 91.7542L117.187 101H113.554ZM131.496 101V97.7346H135.678V87.2047H131.716V83.9393H139.861V97.7346H143.677V101H131.496ZM137.586 81.1142C136.852 81.1142 136.229 80.8696 135.715 80.3804C135.226 79.8912 134.981 79.3042 134.981 78.6193C134.981 77.91 135.226 77.3229 135.715 76.8582C136.204 76.369 136.828 76.1244 137.586 76.1244C138.271 76.1244 138.87 76.369 139.384 76.8582C139.922 77.3474 140.191 77.9344 140.191 78.6193C140.191 79.3042 139.922 79.8912 139.384 80.3804C138.87 80.8696 138.271 81.1142 137.586 81.1142ZM157.729 101.367C156.408 101.367 155.32 101.086 154.463 100.523C153.607 99.936 152.984 98.9698 152.592 97.6246C152.201 96.2793 152.054 94.457 152.152 92.1578L152.335 87.2047H148.85L148.923 83.9393H152.482L152.629 79.9034L156.922 79.3531L157.252 79.3164L157.289 79.6466C157.166 79.8178 157.056 80.0013 156.958 80.197C156.885 80.3682 156.836 80.6495 156.812 81.0408L156.555 83.9393H162.058L162.022 87.2047H156.518L156.298 92.0844C156.225 93.6743 156.273 94.8973 156.445 95.7534C156.64 96.6095 156.922 97.2087 157.289 97.5512C157.68 97.8691 158.145 98.0281 158.683 98.0281C159.465 98.0281 160.163 97.8691 160.774 97.5512C161.41 97.2332 161.997 96.8663 162.535 96.4505L163.416 99.459C162.56 100.071 161.667 100.547 160.737 100.89C159.808 101.208 158.805 101.367 157.729 101.367ZM167.121 76.3812H171.598V76.7114C171.475 76.8582 171.39 77.0294 171.341 77.2251C171.316 77.3963 171.304 77.6776 171.304 78.069V86.1774C171.916 85.2968 172.674 84.6364 173.579 84.1961C174.484 83.7559 175.389 83.5357 176.294 83.5357C177.933 83.5357 179.253 84.0983 180.256 85.2234C181.259 86.3241 181.761 88.1464 181.761 90.6902V101H177.578V90.7636C177.578 89.2715 177.358 88.232 176.918 87.645C176.502 87.0335 175.927 86.7277 175.193 86.7277C174.141 86.7277 173.224 87.1313 172.441 87.9385C171.683 88.7212 171.304 89.8097 171.304 91.2039V101H167.121V76.3812ZM206.416 107.457C205.584 107.457 204.851 107.323 204.215 107.054C203.579 106.785 202.955 106.393 202.343 105.88L203.774 103.018L203.921 102.688L204.251 102.834C204.325 103.03 204.41 103.214 204.508 103.385C204.606 103.556 204.826 103.752 205.169 103.972C205.535 104.168 205.951 104.265 206.416 104.265C207.15 104.265 207.737 103.96 208.177 103.348C208.642 102.737 209.107 101.77 209.571 100.45L202.93 83.9393H207.076L211.442 95.203L213.277 89.9931C213.644 88.9413 213.95 87.9263 214.194 86.9479C214.439 85.9695 214.598 84.9666 214.671 83.9393H218.524C218.426 85.04 218.169 86.2018 217.753 87.4248C217.337 88.6478 216.921 89.8097 216.506 90.9103L212.286 102.504C211.601 104.314 210.77 105.586 209.791 106.32C208.838 107.078 207.712 107.457 206.416 107.457ZM229.274 101.367C227.757 101.367 226.375 101 225.128 100.266C223.905 99.508 222.939 98.4684 222.229 97.1476C221.52 95.8023 221.165 94.2369 221.165 92.4513C221.165 90.7636 221.52 89.2471 222.229 87.9018C222.939 86.5565 223.905 85.4925 225.128 84.7098C226.375 83.9271 227.757 83.5357 229.274 83.5357C230.815 83.5357 232.197 83.9271 233.42 84.7098C234.667 85.4925 235.645 86.5565 236.355 87.9018C237.089 89.2471 237.455 90.7636 237.455 92.4513C237.455 94.2124 237.089 95.7656 236.355 97.1109C235.645 98.4562 234.667 99.508 233.42 100.266C232.197 101 230.815 101.367 229.274 101.367ZM229.274 98.0648C230.448 98.0648 231.414 97.5512 232.172 96.5239C232.93 95.4721 233.31 94.1146 233.31 92.4513C233.31 90.7391 232.93 89.3816 232.172 88.3788C231.414 87.3759 230.448 86.8745 229.274 86.8745C228.149 86.8745 227.207 87.3759 226.449 88.3788C225.69 89.3816 225.311 90.7391 225.311 92.4513C225.311 94.1146 225.678 95.4721 226.412 96.5239C227.17 97.5512 228.124 98.0648 229.274 98.0648ZM246.261 101.44C244.524 101.44 243.093 100.853 241.968 99.6792C240.843 98.5051 240.281 96.5972 240.281 93.9556V83.9393H244.463V93.9556C244.463 95.4721 244.708 96.5483 245.197 97.1843C245.711 97.7958 246.347 98.1015 247.105 98.1015C248.132 98.1015 248.964 97.7346 249.6 97.0008C250.26 96.267 250.59 95.1541 250.59 93.6621V83.9393H254.736V98.285C254.736 98.8231 254.749 99.3123 254.773 99.7526C254.822 100.168 254.932 100.584 255.103 101H251.324C251.128 100.633 251.018 100.266 250.994 99.8993C250.969 99.5324 250.957 99.1655 250.957 98.7986C250.444 99.6792 249.759 100.34 248.903 100.78C248.071 101.22 247.19 101.44 246.261 101.44ZM260.093 83.9393H264.386L264.349 86.691C264.814 85.7126 265.499 84.9422 266.404 84.3796C267.309 83.817 268.263 83.5357 269.265 83.5357C271.173 83.5357 272.751 84.1839 273.998 85.4803L272.237 88.9658L272.127 89.2593L271.797 89.1126C271.724 88.9169 271.65 88.7212 271.577 88.5255C271.503 88.3054 271.32 88.0608 271.026 87.7917C270.684 87.5227 270.317 87.3148 269.926 87.168C269.559 87.0212 269.155 86.9479 268.715 86.9479C267.541 86.9479 266.514 87.3514 265.633 88.1586C264.753 88.9658 264.312 90.2622 264.312 92.0477V101H260.093V83.9393ZM295.278 107.127L295.242 83.9026H299.351V86.2874C299.889 85.3335 300.574 84.6364 301.406 84.1961C302.237 83.7559 303.154 83.5357 304.157 83.5357C305.405 83.5357 306.53 83.8782 307.533 84.563C308.56 85.2234 309.379 86.2263 309.991 87.5716C310.602 88.8924 310.908 90.5434 310.908 92.5247C310.908 94.5304 310.59 96.1937 309.954 97.5145C309.318 98.8353 308.474 99.8259 307.423 100.486C306.395 101.122 305.282 101.44 304.084 101.44C303.179 101.44 302.311 101.281 301.479 100.963C300.647 100.645 299.987 100.168 299.498 99.5324V107.127H295.278ZM302.946 98.2116C303.656 98.2116 304.304 98.0281 304.891 97.6612C305.478 97.2943 305.943 96.6829 306.285 95.8268C306.628 94.9707 306.799 93.7966 306.799 92.3046C306.799 90.6168 306.469 89.2838 305.808 88.3054C305.172 87.327 304.292 86.8256 303.167 86.8011C301.993 86.7766 301.075 87.2414 300.415 88.1953C299.779 89.1248 299.461 90.6535 299.461 92.7815C299.51 96.4016 300.672 98.2116 302.946 98.2116ZM321.805 101.404C320.166 101.404 318.699 101.061 317.402 100.376C316.13 99.6914 315.127 98.6886 314.394 97.3677C313.66 96.0469 313.293 94.457 313.293 92.5981C313.293 90.6902 313.648 89.0636 314.357 87.7183C315.091 86.3731 316.057 85.3457 317.255 84.6364C318.478 83.9026 319.836 83.5357 321.328 83.5357C322.649 83.5357 323.86 83.8415 324.96 84.453C326.085 85.0645 326.978 85.9939 327.639 87.2414C328.323 88.4644 328.666 89.9931 328.666 91.8276C328.666 92.0722 328.654 92.3657 328.629 92.7081C328.629 93.0506 328.617 93.3441 328.593 93.5887H317.292C317.341 94.6649 317.598 95.5455 318.063 96.2303C318.527 96.8908 319.102 97.38 319.787 97.6979C320.472 98.0159 321.206 98.1749 321.988 98.1749C322.747 98.1749 323.468 98.0526 324.153 97.808C324.838 97.5634 325.474 97.1476 326.061 96.5606L328.189 98.6152C327.357 99.5936 326.403 100.303 325.327 100.743C324.251 101.183 323.077 101.404 321.805 101.404ZM317.366 90.4701H324.63C324.63 89.2715 324.324 88.3543 323.713 87.7183C323.101 87.0824 322.245 86.7644 321.145 86.7644C320.191 86.7644 319.359 87.0702 318.65 87.6817C317.94 88.2687 317.512 89.1982 317.366 90.4701ZM333.472 83.9393H337.765L337.728 86.691C338.193 85.7126 338.878 84.9422 339.783 84.3796C340.688 83.817 341.642 83.5357 342.645 83.5357C344.553 83.5357 346.13 84.1839 347.378 85.4803L345.617 88.9658L345.506 89.2593L345.176 89.1126C345.103 88.9169 345.03 88.7212 344.956 88.5255C344.883 88.3054 344.699 88.0608 344.406 87.7917C344.063 87.5227 343.696 87.3148 343.305 87.168C342.938 87.0212 342.535 86.9479 342.094 86.9479C340.92 86.9479 339.893 87.3514 339.012 88.1586C338.132 88.9658 337.692 90.2622 337.692 92.0477V101H333.472V83.9393ZM358.054 101.404C356.489 101.404 355.046 101.196 353.725 100.78C352.404 100.364 351.23 99.6669 350.203 98.6886L352.037 95.3131L352.184 95.0196L352.478 95.203C352.551 95.3743 352.624 95.5699 352.698 95.7901C352.771 95.9857 352.954 96.2181 353.248 96.4872C353.859 97.0008 354.544 97.4044 355.303 97.6979C356.085 97.9914 357.027 98.1382 358.128 98.1382C359.155 98.1382 359.95 97.967 360.513 97.6246C361.075 97.2821 361.356 96.8296 361.356 96.267C361.356 95.7045 361.038 95.252 360.402 94.9095C359.791 94.5671 358.776 94.188 357.357 93.7721C355.498 93.2829 354.018 92.6225 352.918 91.7909C351.817 90.9593 351.267 89.8463 351.267 88.4521C351.267 87.0579 351.866 85.8961 353.065 84.9666C354.288 84.0127 355.926 83.5357 357.981 83.5357C360.794 83.5357 363.081 84.404 364.842 86.1407L362.824 88.9658L362.567 89.2593L362.31 89.0392C362.286 88.8435 362.225 88.66 362.127 88.4888C362.054 88.3176 361.87 88.0852 361.577 87.7917C361.087 87.4493 360.525 87.1925 359.889 87.0212C359.277 86.8256 358.666 86.7277 358.054 86.7277C357.223 86.7277 356.501 86.8623 355.89 87.1313C355.303 87.4004 355.009 87.8162 355.009 88.3788C355.009 88.868 355.327 89.2838 355.963 89.6262C356.599 89.9686 357.687 90.3355 359.228 90.7269C361.283 91.2406 362.775 91.9254 363.705 92.7815C364.634 93.6131 365.099 94.6894 365.099 96.0102C365.099 96.9886 364.83 97.8936 364.292 98.7252C363.753 99.5324 362.959 100.181 361.907 100.67C360.879 101.159 359.595 101.404 358.054 101.404ZM376.032 101.367C374.516 101.367 373.134 101 371.886 100.266C370.663 99.508 369.697 98.4684 368.988 97.1476C368.279 95.8023 367.924 94.2369 367.924 92.4513C367.924 90.7636 368.279 89.2471 368.988 87.9018C369.697 86.5565 370.663 85.4925 371.886 84.7098C373.134 83.9271 374.516 83.5357 376.032 83.5357C377.573 83.5357 378.955 83.9271 380.178 84.7098C381.426 85.4925 382.404 86.5565 383.113 87.9018C383.847 89.2471 384.214 90.7636 384.214 92.4513C384.214 94.2124 383.847 95.7656 383.113 97.1109C382.404 98.4562 381.426 99.508 380.178 100.266C378.955 101 377.573 101.367 376.032 101.367ZM376.032 98.0648C377.206 98.0648 378.173 97.5512 378.931 96.5239C379.689 95.4721 380.068 94.1146 380.068 92.4513C380.068 90.7391 379.689 89.3816 378.931 88.3788C378.173 87.3759 377.206 86.8745 376.032 86.8745C374.907 86.8745 373.965 87.3759 373.207 88.3788C372.449 89.3816 372.07 90.7391 372.07 92.4513C372.07 94.1146 372.437 95.4721 373.17 96.5239C373.929 97.5512 374.883 98.0648 376.032 98.0648ZM387.259 101V83.9393H391.405V86.2874C392.017 85.4558 392.726 84.7954 393.533 84.3062C394.34 83.7926 395.27 83.5357 396.322 83.5357C397.3 83.5357 398.205 83.7803 399.037 84.2695C399.893 84.7343 400.578 85.4925 401.091 86.5443C401.605 87.596 401.862 88.978 401.862 90.6902V101H397.716V90.7636C397.716 89.3694 397.496 88.3543 397.055 87.7183C396.615 87.0579 396.004 86.7277 395.221 86.7277C394.609 86.7277 394.01 86.8989 393.423 87.2414C392.836 87.5594 392.347 88.0241 391.956 88.6356C391.589 89.2471 391.405 89.9809 391.405 90.837V101H387.259ZM410.851 101.44C408.967 101.44 407.5 101 406.448 100.119C405.421 99.2389 404.907 98.0771 404.907 96.6339C404.907 94.8239 405.714 93.3319 407.329 92.1578C408.967 90.9593 411.34 90.36 414.446 90.36C414.618 90.36 414.838 90.36 415.107 90.36C415.4 90.36 415.706 90.3722 416.024 90.3967C415.853 88.978 415.449 88.0241 414.813 87.5349C414.177 87.0212 413.321 86.7644 412.245 86.7644C411.462 86.7644 410.728 86.8989 410.044 87.168C409.359 87.4126 408.674 87.8773 407.989 88.5622L405.714 86.0673C406.693 85.1623 407.757 84.5141 408.906 84.1228C410.056 83.7314 411.23 83.5357 412.428 83.5357C413.847 83.5357 415.143 83.7681 416.318 84.2328C417.492 84.6731 418.421 85.4558 419.106 86.581C419.791 87.6817 420.133 89.2104 420.133 91.1672V101H415.841V99.1655C415.205 100.022 414.471 100.621 413.639 100.963C412.808 101.281 411.878 101.44 410.851 101.44ZM409.053 96.1203C409.053 96.903 409.298 97.4533 409.787 97.7713C410.3 98.0648 410.924 98.2116 411.658 98.2116C412.979 98.2116 414.006 97.8202 414.74 97.0375C415.474 96.2303 415.914 94.9707 416.061 93.2585C415.743 93.2585 415.437 93.2585 415.143 93.2585C414.85 93.234 414.593 93.2218 414.373 93.2218C412.416 93.2218 411.034 93.4909 410.227 94.029C409.444 94.5671 409.053 95.2642 409.053 96.1203ZM424.242 101V97.7346H429.049V79.6466H424.463V76.3812H433.231V97.7346H438.001V101H424.242ZM461.703 101V97.7346H465.885V87.2047H461.923V83.9393H470.068V97.7346H473.884V101H461.703ZM467.793 81.1142C467.059 81.1142 466.436 80.8696 465.922 80.3804C465.433 79.8912 465.188 79.3042 465.188 78.6193C465.188 77.91 465.433 77.3229 465.922 76.8582C466.411 76.369 467.035 76.1244 467.793 76.1244C468.478 76.1244 469.077 76.369 469.591 76.8582C470.129 77.3474 470.398 77.9344 470.398 78.6193C470.398 79.3042 470.129 79.8912 469.591 80.3804C469.077 80.8696 468.478 81.1142 467.793 81.1142ZM478.983 101V83.9393H483.129V86.2874C483.741 85.4558 484.45 84.7954 485.257 84.3062C486.065 83.7926 486.994 83.5357 488.046 83.5357C489.024 83.5357 489.929 83.7803 490.761 84.2695C491.617 84.7343 492.302 85.4925 492.815 86.5443C493.329 87.596 493.586 88.978 493.586 90.6902V101H489.44V90.7636C489.44 89.3694 489.22 88.3543 488.78 87.7183C488.339 87.0579 487.728 86.7277 486.945 86.7277C486.334 86.7277 485.734 86.8989 485.147 87.2414C484.56 87.5594 484.071 88.0241 483.68 88.6356C483.313 89.2471 483.129 89.9809 483.129 90.837V101H478.983ZM500.41 87.168H496.705V83.9393H500.41V82.912C500.41 81.371 500.728 80.0991 501.364 79.0963C502.025 78.0934 502.893 77.3474 503.969 76.8582C505.045 76.369 506.207 76.1244 507.455 76.1244C509.852 76.1244 511.76 76.9071 513.178 78.4726L511.637 81.2977L511.454 81.5912L511.16 81.4077C511.087 81.2365 511.001 81.0653 510.903 80.8941C510.83 80.6984 510.647 80.466 510.353 80.197C509.937 79.879 509.521 79.6588 509.106 79.5366C508.69 79.4143 508.213 79.3531 507.675 79.3531C506.696 79.3531 505.926 79.6466 505.363 80.2337C504.801 80.8207 504.519 81.7012 504.519 82.8753V83.9393H509.656V87.168H504.519V101H500.41V87.168ZM522.791 101.367C521.274 101.367 519.892 101 518.645 100.266C517.422 99.508 516.456 98.4684 515.746 97.1476C515.037 95.8023 514.682 94.2369 514.682 92.4513C514.682 90.7636 515.037 89.2471 515.746 87.9018C516.456 86.5565 517.422 85.4925 518.645 84.7098C519.892 83.9271 521.274 83.5357 522.791 83.5357C524.332 83.5357 525.714 83.9271 526.937 84.7098C528.184 85.4925 529.163 86.5565 529.872 87.9018C530.606 89.2471 530.973 90.7636 530.973 92.4513C530.973 94.2124 530.606 95.7656 529.872 97.1109C529.163 98.4562 528.184 99.508 526.937 100.266C525.714 101 524.332 101.367 522.791 101.367ZM522.791 98.0648C523.965 98.0648 524.931 97.5512 525.689 96.5239C526.448 95.4721 526.827 94.1146 526.827 92.4513C526.827 90.7391 526.448 89.3816 525.689 88.3788C524.931 87.3759 523.965 86.8745 522.791 86.8745C521.666 86.8745 520.724 87.3759 519.966 88.3788C519.208 89.3816 518.828 90.7391 518.828 92.4513C518.828 94.1146 519.195 95.4721 519.929 96.5239C520.687 97.5512 521.641 98.0648 522.791 98.0648Z" fill="black"/>
</svg>
